<svg width="343" height="343" viewBox="0 0 343 343" fill="none" xmlns="http://www.w3.org/2000/svg">
<path d="M308.631 273.364H285.911V273.536H308.631V273.364Z" fill="#F59F0B"/>
<path d="M227.217 275.23H221.256V275.401H227.217V275.23Z" fill="#F59F0B"/>
<path d="M285.225 266.998H272.061V267.17H285.225V266.998Z" fill="#F59F0B"/>
<path d="M65.6159 268.151H35.9875V268.322H65.6159V268.151Z" fill="#F59F0B"/>
<path d="M76.0705 268.151H71.7281V268.322H76.0705V268.151Z" fill="#F59F0B"/>
<path d="M154.453 271.045H90.1884V271.217H154.453V271.045Z" fill="#F59F0B"/>
<path d="M163.542 231.731H31.0758C30.0369 231.731 29.0406 231.318 28.306 230.583C27.5714 229.849 27.1588 228.853 27.1588 227.814V41.6127C27.1678 40.5798 27.5845 39.5923 28.3181 38.8651C29.0517 38.1379 30.0429 37.7299 31.0758 37.73H163.542C164.057 37.73 164.566 37.8313 165.041 38.0281C165.517 38.225 165.948 38.5135 166.312 38.8773C166.676 39.241 166.964 39.6728 167.161 40.148C167.358 40.6233 167.459 41.1326 167.459 41.647V227.814C167.459 228.328 167.358 228.837 167.161 229.313C166.964 229.788 166.676 230.22 166.312 230.583C165.948 230.947 165.517 231.236 165.041 231.433C164.566 231.629 164.057 231.731 163.542 231.731ZM31.0758 37.8672C30.083 37.869 29.1313 38.2642 28.4293 38.9662C27.7273 39.6683 27.3321 40.6199 27.3303 41.6127V227.814C27.3321 228.807 27.7273 229.758 28.4293 230.46C29.1313 231.162 30.083 231.557 31.0758 231.559H163.542C164.535 231.557 165.487 231.162 166.189 230.46C166.891 229.758 167.286 228.807 167.288 227.814V41.6127C167.286 40.6199 166.891 39.6683 166.189 38.9662C165.487 38.2642 164.535 37.869 163.542 37.8672H31.0758Z" fill="#F59F0B"/>
<path d="M311.924 231.731H179.458C178.419 231.731 177.422 231.318 176.688 230.583C175.953 229.849 175.541 228.853 175.541 227.814V41.6127C175.55 40.5798 175.966 39.5923 176.7 38.8651C177.433 38.1379 178.425 37.7299 179.458 37.73H311.924C312.963 37.73 313.959 38.1427 314.694 38.8773C315.429 39.6119 315.841 40.6082 315.841 41.647V227.814C315.841 228.853 315.429 229.849 314.694 230.583C313.959 231.318 312.963 231.731 311.924 231.731ZM179.458 37.8672C178.465 37.869 177.513 38.2642 176.811 38.9662C176.109 39.6683 175.714 40.6199 175.712 41.6127V227.814C175.714 228.807 176.109 229.758 176.811 230.46C177.513 231.162 178.465 231.557 179.458 231.559H311.924C312.917 231.557 313.869 231.162 314.571 230.46C315.273 229.758 315.668 228.807 315.67 227.814V41.6127C315.668 40.6199 315.273 39.6683 314.571 38.9662C313.869 38.2642 312.917 37.869 311.924 37.8672H179.458Z" fill="#F59F0B"/>
<path d="M343 262.326H0V262.498H343V262.326Z" fill="#F59F0B"/>
<path d="M89.6465 81.2498L94.6474 78.0393L97.3777 83.3215L103.318 83.0471L103.044 88.9879L108.326 91.7181L105.116 96.7191L108.326 101.727L103.044 104.457L103.318 110.398L97.3777 110.124L94.6474 115.406L89.6465 112.195L84.6387 115.406L81.9084 110.124L75.9676 110.398L76.242 104.457L70.9598 101.727L74.1703 96.7191L70.9598 91.7181L76.242 88.9879L75.9676 83.0471L81.9084 83.3215L84.6387 78.0393L89.6465 81.2498Z" fill="#D8D8D8"/>
<path d="M87.7463 104.361L81.7986 98.4137C81.4723 98.0869 81.289 97.644 81.289 97.1823C81.289 96.7205 81.4723 96.2776 81.7986 95.9509C82.1253 95.6246 82.5682 95.4413 83.03 95.4413C83.4918 95.4413 83.9347 95.6246 84.2614 95.9509L87.7463 99.4358L95.0247 92.1573C95.3514 91.831 95.7943 91.6477 96.2561 91.6477C96.7179 91.6477 97.1607 91.831 97.4875 92.1573C97.8138 92.484 97.9971 92.9269 97.9971 93.3887C97.9971 93.8505 97.8138 94.2934 97.4875 94.6201L87.7463 104.361Z" fill="#FAFAFA"/>
<path d="M275.676 133.756L279.6 131.239L281.74 135.382L286.405 135.162L286.185 139.82L290.329 141.961L287.811 145.891L290.329 149.815L286.185 151.956L286.405 156.614L281.74 156.401L279.6 160.544L275.676 158.027L271.752 160.544L269.612 156.401L264.954 156.614L265.166 151.956L261.023 149.815L263.541 145.891L261.023 141.961L265.166 139.82L264.954 135.162L269.612 135.382L271.752 131.239L275.676 133.756Z" fill="#D8D8D8"/>
<path d="M274.187 151.88L269.523 147.216C269.269 146.959 269.127 146.613 269.127 146.252C269.127 145.891 269.269 145.545 269.523 145.288C269.78 145.032 270.127 144.889 270.49 144.889C270.852 144.889 271.2 145.032 271.457 145.288L274.201 148.032L279.909 142.325C280.166 142.069 280.513 141.926 280.876 141.926C281.238 141.926 281.586 142.069 281.843 142.325C282.099 142.582 282.242 142.929 282.242 143.292C282.242 143.654 282.099 144.002 281.843 144.259L274.187 151.88Z" fill="#FAFAFA"/>
<path d="M90.1473 199.626L97.7962 203.529C98.4263 203.848 99.1431 203.954 99.8384 203.83C100.534 203.706 101.17 203.36 101.652 202.843L107.503 196.56C107.842 196.196 108.093 195.76 108.235 195.284C108.378 194.808 108.409 194.306 108.326 193.816L105.287 176.556C105.046 175.202 104.278 173.999 103.152 173.211C102.025 172.423 100.632 172.113 99.278 172.351L89.5916 174.059C88.9209 174.177 88.2801 174.427 87.7058 174.793C87.1315 175.159 86.6349 175.635 86.2444 176.193C85.8539 176.751 85.5772 177.38 85.43 178.045C85.2828 178.71 85.268 179.398 85.3865 180.068L88.4254 197.321C88.5169 197.811 88.7197 198.274 89.0182 198.674C89.3167 199.074 89.703 199.399 90.1473 199.626ZM98.8595 198.254C99.1777 198.196 99.5059 198.234 99.8024 198.364C100.099 198.493 100.35 198.707 100.525 198.979C100.7 199.251 100.79 199.569 100.783 199.892C100.777 200.216 100.675 200.53 100.49 200.795C100.304 201.06 100.045 201.265 99.7433 201.382C99.442 201.499 99.1126 201.525 98.7968 201.454C98.4811 201.384 98.1934 201.222 97.97 200.988C97.7467 200.754 97.5978 200.459 97.5424 200.141C97.4685 199.716 97.5654 199.279 97.8122 198.926C98.0589 198.573 98.4354 198.331 98.8595 198.254Z" fill="#D8D8D8"/>
<path d="M90.5208 194.277L105.323 191.667L105.04 190.066L90.2385 192.676L90.5208 194.277Z" fill="#FAFAFA"/>
<path d="M88.0141 180.049L102.816 177.439L102.534 175.838L87.7318 178.448L88.0141 180.049Z" fill="#FAFAFA"/>
<path d="M116.291 87.904L121.559 93.5567C121.992 94.0208 122.564 94.3314 123.189 94.4416C123.814 94.5517 124.458 94.4554 125.023 94.1672L131.883 90.6549C132.287 90.451 132.637 90.1557 132.907 89.7924C133.176 89.4291 133.356 89.008 133.434 88.5626L136.178 73.0453C136.391 71.8283 136.113 70.5763 135.404 69.5641C134.696 68.552 133.615 67.8623 132.398 67.6464L123.693 66.1098C122.474 65.8964 121.22 66.1753 120.207 66.8852C119.193 67.5951 118.503 68.6781 118.287 69.8965L115.543 85.407C115.464 85.8527 115.491 86.3106 115.621 86.7442C115.751 87.1778 115.98 87.575 116.291 87.904ZM124.063 89.4544C124.349 89.5035 124.615 89.6366 124.826 89.8366C125.036 90.0367 125.183 90.2948 125.247 90.5783C125.311 90.8617 125.289 91.1577 125.185 91.4289C125.08 91.7 124.898 91.9341 124.66 92.1014C124.423 92.2687 124.141 92.3618 123.85 92.3689C123.56 92.3759 123.274 92.2966 123.028 92.141C122.783 91.9853 122.589 91.7604 122.472 91.4946C122.354 91.2289 122.319 90.9342 122.369 90.648C122.436 90.2654 122.652 89.9248 122.969 89.7011C123.287 89.4774 123.68 89.3887 124.063 89.4544Z" fill="#F0F0F0"/>
<path d="M118.258 83.5092L131.567 85.856L131.82 84.417L118.511 82.0703L118.258 83.5092Z" fill="#FAFAFA"/>
<path d="M120.897 71.54L134.141 73.8374L134.39 72.4054L121.146 70.108L120.897 71.54Z" fill="#FAFAFA"/>
<path d="M243.791 71.1724C242.817 69.7813 241.33 68.8338 239.658 68.5379C237.986 68.2421 236.265 68.6221 234.873 69.5946L232.129 71.4949L230.222 68.7509C229.245 67.3627 227.759 66.4176 226.088 66.1219C224.417 65.8262 222.697 66.2042 221.304 67.1731C219.915 68.1493 218.97 69.6354 218.675 71.3065C218.379 72.9776 218.757 74.6978 219.726 76.0911L228.994 89.324L242.233 80.0561C243.61 79.0784 244.546 77.5973 244.837 75.9342C245.129 74.2711 244.753 72.5601 243.791 71.1724Z" fill="#F59F0B"/>
<path d="M262.82 72.4073C262.585 72.0682 262.284 71.779 261.936 71.5564C261.588 71.3337 261.2 71.182 260.793 71.11C260.386 71.038 259.969 71.047 259.566 71.1366C259.163 71.2262 258.782 71.3946 258.444 71.6321L257.113 72.5651L256.18 71.2342C255.701 70.5523 254.972 70.0878 254.152 69.9426C253.331 69.7973 252.487 69.983 251.803 70.459C251.122 70.9399 250.659 71.6709 250.515 72.4923C250.371 73.3137 250.558 74.1587 251.035 74.8426L255.569 81.3184L262.052 76.784C262.391 76.5477 262.679 76.2468 262.901 75.8986C263.123 75.5505 263.274 75.1619 263.345 74.7553C263.417 74.3486 263.407 73.9318 263.317 73.5289C263.227 73.126 263.058 72.7448 262.82 72.4073Z" fill="#F59F0B"/>
<path d="M59.9289 135.389C55.5015 136.66 51.76 139.638 49.5269 143.666C47.2938 147.695 46.7517 152.446 48.02 156.874C49.7418 162.863 60.2445 172.899 67.3926 179.204C68.1257 179.852 69.0103 180.305 69.9646 180.52C70.919 180.736 71.9123 180.708 72.853 180.439C73.7936 180.17 74.6512 179.668 75.3467 178.979C76.0421 178.291 76.5529 177.439 76.832 176.501C79.576 167.37 83.1363 153.287 81.4213 147.298C80.7926 145.104 79.7379 143.056 78.3174 141.27C76.8969 139.485 75.1385 137.996 73.1426 136.89C71.1466 135.784 68.9524 135.083 66.6851 134.825C64.4179 134.567 62.1221 134.759 59.9289 135.389ZM66.9261 159.79C65.403 160.228 63.7843 160.204 62.2747 159.722C60.7651 159.239 59.4324 158.32 58.4452 157.08C57.4579 155.841 56.8605 154.336 56.7284 152.757C56.5963 151.178 56.9355 149.595 57.7031 148.208C58.4707 146.822 59.6322 145.694 61.0408 144.968C62.4493 144.241 64.0416 143.949 65.6163 144.128C67.1909 144.306 68.6773 144.948 69.8873 145.971C71.0973 146.995 71.9766 148.354 72.4141 149.877C73.0007 151.919 72.7521 154.111 71.7229 155.97C70.6937 157.829 68.9683 159.203 66.9261 159.79Z" fill="#E0E0E0"/>
<path d="M62.6455 134.614C58.2236 135.889 54.4888 138.868 52.2611 142.895C50.0334 146.922 49.4949 151.669 50.764 156.092C52.4859 162.081 62.9885 172.124 70.1366 178.429C70.8726 179.075 71.7595 179.524 72.7154 179.737C73.6713 179.949 74.6653 179.917 75.6055 179.644C76.5458 179.37 77.4018 178.864 78.0946 178.172C78.7874 177.48 79.2946 176.624 79.5691 175.685C82.3131 166.554 85.8735 152.477 84.1585 146.482C83.5264 144.289 82.4683 142.242 81.0447 140.459C79.6211 138.676 77.86 137.191 75.862 136.088C73.864 134.986 71.6683 134.289 69.4005 134.036C67.1327 133.783 64.8373 133.979 62.6455 134.614ZM69.6427 159.015C68.1184 159.454 66.498 159.431 64.9866 158.949C63.4753 158.467 62.1408 157.548 61.152 156.307C60.1632 155.067 59.5646 153.561 59.4317 151.98C59.2989 150.399 59.638 148.815 60.4059 147.427C61.1739 146.039 62.3363 144.909 63.746 144.182C65.1558 143.455 66.7496 143.162 68.3259 143.34C69.9022 143.519 71.39 144.161 72.6013 145.186C73.8126 146.21 74.6928 147.57 75.1307 149.095C75.4222 150.107 75.5114 151.166 75.3933 152.212C75.2752 153.258 74.9521 154.271 74.4424 155.192C73.9328 156.114 73.2465 156.925 72.423 157.581C71.5994 158.237 70.6547 158.724 69.6427 159.015Z" fill="#DADADA"/>
<path d="M262.676 91.2379C260.767 90.686 258.768 90.5164 256.794 90.739C254.819 90.9616 252.908 91.572 251.17 92.5351C249.432 93.4981 247.901 94.795 246.665 96.3512C245.429 97.9073 244.513 99.6922 243.969 101.603C242.474 106.824 245.595 119.083 247.968 127.033C248.21 127.853 248.655 128.597 249.261 129.199C249.868 129.8 250.616 130.238 251.438 130.473C252.259 130.708 253.126 130.731 253.959 130.541C254.791 130.351 255.562 129.954 256.2 129.386C262.429 123.898 271.574 115.159 273.069 109.945C273.621 108.034 273.789 106.034 273.565 104.058C273.34 102.082 272.728 100.169 271.762 98.431C270.796 96.6925 269.496 95.1621 267.937 93.9277C266.378 92.6933 264.59 91.7792 262.676 91.2379ZM256.564 112.504C255.239 112.123 254.056 111.359 253.165 110.306C252.274 109.254 251.714 107.961 251.558 106.591C251.401 105.221 251.653 103.836 252.284 102.609C252.914 101.383 253.894 100.371 255.099 99.7006C256.304 99.0305 257.681 98.7326 259.055 98.8445C260.429 98.9564 261.74 99.473 262.821 100.329C263.902 101.185 264.705 102.343 265.128 103.655C265.552 104.967 265.577 106.375 265.201 107.702C264.95 108.585 264.528 109.41 263.958 110.13C263.388 110.849 262.682 111.45 261.879 111.896C261.077 112.342 260.194 112.625 259.282 112.729C258.37 112.834 257.446 112.757 256.564 112.504Z" fill="#E0E0E0"/>
<path d="M265.043 91.924C263.134 91.372 261.135 91.2025 259.16 91.4251C257.186 91.6477 255.274 92.258 253.536 93.2211C251.798 94.1842 250.267 95.481 249.032 97.0372C247.796 98.5934 246.88 100.378 246.336 102.289C244.84 107.503 247.962 119.769 250.335 127.719C250.577 128.539 251.022 129.283 251.628 129.885C252.234 130.486 252.983 130.924 253.804 131.159C254.625 131.394 255.493 131.417 256.325 131.227C257.158 131.037 257.929 130.64 258.567 130.072C264.789 124.584 273.934 115.845 275.429 110.631C275.981 108.721 276.149 106.72 275.925 104.745C275.701 102.769 275.089 100.857 274.124 99.1189C273.159 97.3805 271.86 95.85 270.301 94.6153C268.743 93.3805 266.956 92.4659 265.043 91.924ZM258.951 113.19C257.625 112.811 256.441 112.047 255.549 110.995C254.657 109.943 254.097 108.65 253.939 107.28C253.781 105.91 254.033 104.524 254.663 103.297C255.293 102.069 256.272 101.057 257.478 100.386C258.683 99.7153 260.06 99.417 261.435 99.5286C262.809 99.6403 264.12 100.157 265.201 101.013C266.283 101.87 267.086 103.027 267.509 104.34C267.933 105.652 267.958 107.061 267.581 108.388C267.074 110.169 265.879 111.676 264.261 112.576C262.642 113.477 260.732 113.698 258.951 113.19Z" fill="#DADADA"/>
<path d="M171.5 292.929C244.959 292.929 304.509 289.452 304.509 285.163C304.509 280.874 244.959 277.398 171.5 277.398C98.0414 277.398 38.4915 280.874 38.4915 285.163C38.4915 289.452 98.0414 292.929 171.5 292.929Z" fill="#F59F0B"/>
<path d="M129.311 128.879H136.651C137.015 128.872 137.376 128.943 137.711 129.086C138.045 129.229 138.346 129.441 138.592 129.709C138.838 129.977 139.025 130.294 139.14 130.639C139.255 130.984 139.295 131.35 139.258 131.712L137.886 147.195C137.807 147.966 137.449 148.681 136.879 149.205C136.309 149.73 135.567 150.028 134.792 150.042H127.459C127.094 150.048 126.733 149.976 126.398 149.832C126.063 149.688 125.763 149.474 125.517 149.205C125.271 148.935 125.085 148.617 124.972 148.271C124.859 147.924 124.82 147.558 124.859 147.195L126.224 131.712C126.306 130.945 126.664 130.234 127.233 129.713C127.801 129.191 128.54 128.895 129.311 128.879Z" fill="#1DAF52"/>
<path opacity="0.2" d="M211.425 125.572H222.895C223.465 125.562 224.03 125.673 224.553 125.898C225.076 126.123 225.545 126.457 225.929 126.878C226.314 127.298 226.604 127.796 226.781 128.337C226.958 128.878 227.018 129.451 226.956 130.017L225.543 146.186C225.42 147.385 224.865 148.497 223.981 149.315C223.097 150.133 221.945 150.601 220.741 150.632H209.23C208.661 150.641 208.097 150.529 207.574 150.303C207.052 150.078 206.584 149.744 206.2 149.323C205.817 148.903 205.527 148.406 205.351 147.865C205.174 147.324 205.114 146.752 205.176 146.186L206.589 130.017C206.713 128.814 207.273 127.697 208.164 126.878C209.055 126.059 210.215 125.594 211.425 125.572Z" fill="black"/>
<path opacity="0.2" d="M209.072 152.436H220.549C221.118 152.427 221.682 152.539 222.205 152.764C222.727 152.99 223.195 153.324 223.579 153.744C223.962 154.165 224.252 154.662 224.428 155.203C224.605 155.743 224.665 156.316 224.603 156.881L223.19 173.05C223.068 174.255 222.508 175.373 221.616 176.192C220.725 177.011 219.564 177.475 218.354 177.496H206.884C206.314 177.506 205.749 177.395 205.226 177.169C204.703 176.944 204.234 176.61 203.85 176.19C203.466 175.769 203.175 175.272 202.998 174.731C202.821 174.189 202.761 173.617 202.823 173.05L204.243 156.881C204.365 155.678 204.924 154.561 205.814 153.742C206.704 152.923 207.863 152.458 209.072 152.436Z" fill="black"/>
<path d="M149.898 95.2579H213.806C215.865 95.2212 217.909 95.6237 219.801 96.4387C221.694 97.2538 223.39 98.4625 224.779 99.9846C226.167 101.507 227.215 103.307 227.853 105.266C228.491 107.225 228.705 109.297 228.479 111.345L214.842 267.183C214.398 271.538 212.373 275.579 209.151 278.542C205.929 281.506 201.732 283.185 197.355 283.263H133.448C131.388 283.3 129.345 282.897 127.454 282.083C125.562 281.268 123.866 280.06 122.478 278.539C121.089 277.017 120.041 275.218 119.402 273.26C118.764 271.302 118.55 269.23 118.774 267.183L132.398 111.345C132.841 106.986 134.867 102.941 138.092 99.9766C141.317 97.0118 145.518 95.3329 149.898 95.2579Z" fill="#1DAF52"/>
<path opacity="0.2" d="M149.898 95.2579H213.806C215.865 95.2212 217.909 95.6237 219.801 96.4387C221.694 97.2538 223.39 98.4625 224.779 99.9846C226.167 101.507 227.215 103.307 227.853 105.266C228.491 107.225 228.705 109.297 228.479 111.345L214.842 267.183C214.398 271.538 212.373 275.579 209.151 278.542C205.929 281.506 201.732 283.185 197.355 283.263H133.448C131.388 283.3 129.345 282.897 127.454 282.083C125.562 281.268 123.866 280.06 122.478 278.539C121.089 277.017 120.041 275.218 119.402 273.26C118.764 271.302 118.55 269.23 118.774 267.183L132.398 111.345C132.841 106.986 134.867 102.941 138.092 99.9766C141.317 97.0118 145.518 95.3329 149.898 95.2579Z" fill="black"/>
<path d="M147.833 95.258H211.748C213.807 95.2224 215.851 95.6257 217.742 96.4411C219.634 97.2565 221.33 98.4653 222.718 99.9871C224.106 101.509 225.154 103.309 225.793 105.267C226.431 107.225 226.645 109.297 226.421 111.345L212.783 267.183C212.338 271.538 210.313 275.578 207.091 278.541C203.869 281.504 199.674 283.184 195.297 283.263H131.39C129.33 283.301 127.286 282.899 125.394 282.085C123.502 281.271 121.805 280.063 120.417 278.541C119.028 277.02 117.98 275.22 117.342 273.261C116.704 271.303 116.491 269.231 116.716 267.183L130.34 111.345C131.122 102.461 138.956 95.258 147.833 95.258Z" fill="#1DAF52"/>
<path d="M224.5 111.345L210.87 267.176C210.475 271.011 208.689 274.569 205.851 277.178C203.012 279.786 199.317 281.265 195.462 281.335H131.554C129.741 281.369 127.941 281.015 126.275 280.298C124.608 279.581 123.114 278.518 121.891 277.178C120.668 275.838 119.745 274.253 119.182 272.529C118.62 270.804 118.432 268.979 118.63 267.176L132.268 111.345C132.661 107.51 134.445 103.951 137.282 101.341C140.119 98.7316 143.814 97.2509 147.668 97.1788H211.576C213.39 97.1465 215.19 97.501 216.856 98.2187C218.523 98.9364 220.017 100.001 221.24 101.341C222.462 102.681 223.386 104.267 223.948 105.991C224.51 107.716 224.698 109.541 224.5 111.345Z" fill="white"/>
<g opacity="0.1">
<path d="M131.554 281.335H155.784L194.927 97.1787H164.057L125.243 279.778C127.186 280.81 129.354 281.345 131.554 281.335Z" fill="black"/>
<path d="M209.745 97.1787H203.872L164.722 281.335H170.601L209.745 97.1787Z" fill="black"/>
</g>
<path d="M160.888 96.7261C160.828 97.3012 160.89 97.8825 161.07 98.4321C161.25 98.9816 161.543 99.4871 161.932 99.9156C162.32 100.344 162.794 100.686 163.324 100.919C163.853 101.152 164.425 101.27 165.004 101.267H193.473C194.707 101.241 195.889 100.765 196.797 99.9285C197.705 99.0924 198.277 97.9538 198.405 96.7261H160.888Z" fill="#1DAF52"/>
<path d="M210.417 102.214H216.879C217.004 102.213 217.128 102.239 217.242 102.289C217.357 102.339 217.459 102.413 217.543 102.506C217.627 102.598 217.691 102.707 217.73 102.826C217.769 102.945 217.783 103.07 217.771 103.195L217.524 106.007C217.497 106.273 217.374 106.519 217.178 106.7C216.982 106.88 216.727 106.983 216.46 106.988H209.998C209.873 106.99 209.749 106.965 209.634 106.915C209.519 106.865 209.416 106.792 209.331 106.699C209.247 106.606 209.183 106.497 209.145 106.377C209.106 106.258 209.093 106.132 209.107 106.007L209.354 103.195C209.38 102.93 209.503 102.683 209.699 102.503C209.895 102.322 210.15 102.219 210.417 102.214Z" fill="#1DAF52"/>
<path d="M141.419 102.214H150.069C150.211 102.212 150.351 102.24 150.48 102.297C150.61 102.353 150.726 102.436 150.821 102.54C150.916 102.644 150.988 102.768 151.033 102.902C151.077 103.036 151.092 103.178 151.078 103.318L150.851 105.884C150.821 106.183 150.682 106.461 150.461 106.664C150.24 106.868 149.952 106.983 149.651 106.989H141C140.859 106.99 140.72 106.962 140.59 106.906C140.461 106.85 140.345 106.767 140.251 106.662C140.156 106.558 140.085 106.434 140.041 106.3C139.998 106.166 139.983 106.024 139.999 105.884L140.218 103.318C140.249 103.019 140.387 102.742 140.609 102.538C140.83 102.334 141.118 102.219 141.419 102.214Z" fill="#1DAF52"/>
<path opacity="0.4" d="M141.419 102.214H150.069C150.211 102.212 150.351 102.24 150.48 102.297C150.61 102.353 150.726 102.436 150.821 102.54C150.916 102.644 150.988 102.768 151.033 102.902C151.077 103.036 151.092 103.178 151.078 103.318L150.851 105.884C150.821 106.183 150.682 106.461 150.461 106.664C150.24 106.868 149.952 106.983 149.651 106.989H141C140.859 106.99 140.72 106.962 140.59 106.906C140.461 106.85 140.345 106.767 140.251 106.662C140.156 106.558 140.085 106.434 140.041 106.3C139.998 106.166 139.983 106.024 139.999 105.884L140.218 103.318C140.249 103.019 140.387 102.742 140.609 102.538C140.83 102.334 141.118 102.219 141.419 102.214Z" fill="white"/>
<path d="M208.695 103.01H209.71C209.756 103.008 209.802 103.017 209.844 103.035C209.887 103.053 209.925 103.079 209.956 103.113C209.987 103.147 210.011 103.187 210.025 103.231C210.039 103.274 210.044 103.321 210.039 103.366L209.827 105.795C209.817 105.892 209.771 105.982 209.699 106.048C209.627 106.113 209.533 106.15 209.436 106.152H208.421C208.375 106.153 208.329 106.144 208.287 106.126C208.244 106.108 208.206 106.082 208.175 106.048C208.144 106.014 208.12 105.974 208.106 105.93C208.091 105.887 208.086 105.841 208.091 105.795L208.304 103.366C208.314 103.269 208.359 103.179 208.432 103.114C208.504 103.048 208.597 103.011 208.695 103.01Z" fill="#1DAF52"/>
<path d="M215.596 103.01H216.618C216.664 103.01 216.709 103.019 216.75 103.037C216.792 103.055 216.829 103.082 216.859 103.116C216.89 103.15 216.913 103.189 216.927 103.233C216.941 103.276 216.945 103.321 216.941 103.366L216.728 105.795C216.719 105.891 216.676 105.981 216.605 106.047C216.534 106.113 216.441 106.15 216.344 106.152H215.322C215.276 106.152 215.231 106.143 215.19 106.124C215.148 106.106 215.111 106.079 215.081 106.045C215.05 106.012 215.027 105.972 215.013 105.929C214.999 105.886 214.994 105.84 214.999 105.795L215.212 103.366C215.22 103.27 215.264 103.18 215.335 103.114C215.406 103.048 215.499 103.011 215.596 103.01Z" fill="white"/>
<path d="M213.408 103.01H214.43C214.475 103.01 214.52 103.019 214.562 103.037C214.603 103.055 214.64 103.082 214.671 103.116C214.701 103.15 214.724 103.189 214.738 103.233C214.752 103.276 214.757 103.321 214.752 103.366L214.54 105.795C214.531 105.891 214.487 105.981 214.416 106.047C214.345 106.113 214.252 106.15 214.155 106.152H213.133C213.088 106.152 213.043 106.143 213.001 106.124C212.96 106.106 212.923 106.079 212.892 106.045C212.862 106.012 212.839 105.972 212.825 105.929C212.811 105.886 212.806 105.84 212.811 105.795L213.024 103.366C213.032 103.27 213.076 103.18 213.147 103.114C213.218 103.048 213.311 103.011 213.408 103.01Z" fill="white"/>
<path d="M224.891 146.077L223.519 162.013C224.191 161.884 224.803 161.542 225.265 161.038C225.727 160.534 226.015 159.894 226.085 159.214L226.963 148.862C227.033 148.222 226.858 147.579 226.474 147.063C226.09 146.546 225.524 146.194 224.891 146.077Z" fill="#1DAF52"/>
<path opacity="0.2" d="M224.891 146.077L223.519 162.013C224.191 161.884 224.803 161.542 225.265 161.038C225.727 160.534 226.015 159.894 226.085 159.214L226.963 148.862C227.033 148.222 226.858 147.579 226.474 147.063C226.09 146.546 225.524 146.194 224.891 146.077Z" fill="black"/>
<path d="M226.38 128.879L225.008 144.814C225.678 144.687 226.289 144.346 226.75 143.843C227.211 143.34 227.498 142.701 227.567 142.022L228.438 131.712C228.518 131.067 228.35 130.415 227.968 129.89C227.586 129.364 227.018 129.002 226.38 128.879Z" fill="#1DAF52"/>
<path opacity="0.2" d="M226.38 128.879L225.008 144.814C225.678 144.687 226.289 144.346 226.75 143.843C227.211 143.34 227.498 142.701 227.567 142.022L228.438 131.712C228.518 131.067 228.35 130.415 227.968 129.89C227.586 129.364 227.018 129.002 226.38 128.879Z" fill="black"/>
<path d="M278.029 165.244H264.563C263.471 165.244 262.424 165.677 261.652 166.449C260.88 167.221 260.447 168.268 260.447 169.36V177.331C260.456 178.417 260.893 179.455 261.664 180.219C262.435 180.984 263.477 181.413 264.563 181.413H268.411V184.52C268.413 184.691 268.466 184.857 268.561 184.999C268.657 185.14 268.793 185.25 268.95 185.315C269.108 185.38 269.282 185.397 269.449 185.364C269.617 185.332 269.771 185.25 269.893 185.131L273.604 181.413H278.029C279.109 181.404 280.142 180.971 280.905 180.207C281.669 179.444 282.102 178.411 282.111 177.331V169.325C282.102 168.246 281.669 167.213 280.905 166.449C280.142 165.686 279.109 165.253 278.029 165.244Z" fill="#1DAF52"/>
<path d="M274.77 169.058H268.301C268.24 168.516 268.205 168.248 268.144 167.686H264.583C264.659 167.994 264.7 168.145 264.775 168.454H267.341C267.375 168.68 267.396 168.797 267.43 169.03C267.602 170.162 267.691 170.725 267.862 171.857C267.904 172.165 267.931 172.316 267.979 172.625C268.151 173.757 268.233 174.319 268.404 175.451C268.5 176.062 268.548 176.364 268.638 176.967H275.772C275.841 176.659 275.875 176.508 275.95 176.199H269.193C269.159 175.904 269.138 175.753 269.104 175.451H276.451L277.137 172.625C277.213 172.316 277.247 172.165 277.329 171.857C277.604 170.725 277.748 170.162 278.015 169.03L274.77 169.058ZM268.397 169.819H270.689C270.689 170.649 270.723 171.061 270.75 171.877H268.638L268.397 169.819ZM268.981 174.717C268.878 173.887 268.83 173.476 268.734 172.659H270.792C270.792 173.482 270.826 173.894 270.853 174.717H268.981ZM273.378 174.717H271.519C271.519 173.887 271.519 173.476 271.519 172.659H273.577C273.488 173.476 273.453 173.887 273.378 174.717ZM273.639 171.884H271.526C271.526 171.061 271.526 170.649 271.526 169.826H273.817C273.748 170.649 273.714 171.061 273.639 171.884ZM275.916 174.717H274.064C274.167 173.887 274.215 173.476 274.325 172.659H276.383L275.916 174.717ZM276.527 171.884H274.4C274.51 171.061 274.558 170.649 274.661 169.826H276.952C276.787 170.649 276.698 171.061 276.527 171.884Z" fill="white"/>
<path d="M269.077 177.708C268.896 177.708 268.72 177.762 268.57 177.862C268.42 177.962 268.303 178.105 268.234 178.271C268.165 178.438 268.147 178.622 268.182 178.799C268.217 178.976 268.304 179.138 268.431 179.266C268.559 179.393 268.722 179.48 268.899 179.515C269.076 179.551 269.259 179.533 269.426 179.464C269.592 179.395 269.735 179.278 269.835 179.128C269.936 178.977 269.989 178.801 269.989 178.621C269.989 178.379 269.893 178.147 269.722 177.975C269.551 177.804 269.319 177.708 269.077 177.708Z" fill="white"/>
<path d="M275.539 179.526C276.039 179.526 276.444 179.121 276.444 178.621C276.444 178.121 276.039 177.715 275.539 177.715C275.039 177.715 274.633 178.121 274.633 178.621C274.633 179.121 275.039 179.526 275.539 179.526Z" fill="white"/>
<path d="M187.628 108.127H166.252C164.489 108.158 162.799 108.835 161.5 110.028C160.202 111.221 159.386 112.849 159.207 114.603L158.102 127.26C158.012 128.084 158.098 128.918 158.354 129.707C158.611 130.495 159.033 131.22 159.592 131.833C160.151 132.445 160.834 132.932 161.595 133.26C162.357 133.588 163.18 133.75 164.009 133.736H170.128L169.696 138.661C169.675 138.931 169.739 139.201 169.879 139.433C170.019 139.665 170.229 139.847 170.478 139.953C170.727 140.06 171.003 140.086 171.267 140.028C171.532 139.97 171.772 139.83 171.953 139.628L178.36 133.77H185.385C187.147 133.737 188.837 133.061 190.135 131.868C191.433 130.675 192.249 129.048 192.43 127.294L193.534 114.637C193.63 113.81 193.548 112.972 193.294 112.18C193.039 111.387 192.618 110.658 192.059 110.041C191.5 109.425 190.815 108.935 190.051 108.605C189.286 108.275 188.46 108.112 187.628 108.127Z" fill="#1DAF52"/>
<path d="M181.234 114.178H170.979L170.91 112.051H165.264C165.34 112.538 165.381 112.778 165.456 113.265H169.531C169.531 113.629 169.566 113.814 169.586 114.178C169.703 115.975 169.764 116.874 169.881 118.671C169.881 119.151 169.929 119.398 169.957 119.885C170.073 121.676 170.135 122.574 170.245 124.372C170.313 125.332 170.341 125.812 170.402 126.773H181.667L182.058 125.558H171.335V124.372H182.997C183.601 122.574 183.903 121.676 184.5 119.885L184.904 118.671C185.508 116.874 185.81 115.975 186.407 114.178H181.234ZM171.013 115.392H174.649C174.573 116.702 174.539 117.354 174.464 118.671H171.116L171.013 115.392ZM171.26 123.157L171.157 119.885H174.395C174.319 121.195 174.278 121.847 174.203 123.157H171.26ZM178.237 123.157H175.294C175.41 121.847 175.472 121.195 175.589 119.885H178.826C178.593 121.195 178.477 121.847 178.237 123.157ZM179.046 118.678H175.698C175.822 117.361 175.877 116.709 175.993 115.399H179.636C179.396 116.702 179.279 117.354 179.046 118.678ZM182.27 123.164H179.327L180.013 119.892H183.244C182.867 121.195 182.668 121.847 182.27 123.157V123.164ZM183.642 118.678H180.281C180.562 117.361 180.699 116.709 180.967 115.399H184.603C184.218 116.702 184.02 117.354 183.628 118.678H183.642Z" fill="white"/>
<path d="M171.006 127.912C170.613 127.918 170.237 128.068 169.947 128.333C169.658 128.599 169.475 128.961 169.435 129.352C169.416 129.536 169.435 129.721 169.493 129.896C169.551 130.072 169.645 130.233 169.769 130.369C169.894 130.505 170.046 130.613 170.215 130.686C170.385 130.759 170.568 130.796 170.752 130.793C171.145 130.786 171.522 130.636 171.811 130.371C172.101 130.105 172.283 129.743 172.323 129.352C172.343 129.169 172.323 128.983 172.265 128.808C172.208 128.633 172.114 128.471 171.989 128.335C171.865 128.199 171.713 128.091 171.543 128.018C171.374 127.945 171.191 127.909 171.006 127.912Z" fill="white"/>
<path d="M181.248 127.912C180.856 127.918 180.48 128.068 180.192 128.334C179.903 128.6 179.723 128.962 179.684 129.352C179.665 129.536 179.684 129.721 179.742 129.896C179.8 130.072 179.894 130.233 180.018 130.369C180.143 130.505 180.295 130.613 180.464 130.686C180.634 130.759 180.817 130.796 181.001 130.793C181.393 130.786 181.769 130.636 182.057 130.37C182.346 130.105 182.527 129.742 182.565 129.352C182.585 129.169 182.565 128.983 182.507 128.808C182.45 128.633 182.356 128.471 182.231 128.335C182.107 128.199 181.955 128.091 181.785 128.018C181.616 127.945 181.433 127.909 181.248 127.912Z" fill="white"/>
<path d="M202.987 197.691H178.545V222.134H202.987V197.691Z" fill="#1DAF52"/>
<path d="M217.99 197.691H202.981V222.134H217.99V197.691Z" fill="#1DAF52"/>
<path d="M198.316 191.559H173.874L178.545 197.691H202.981L198.316 191.559Z" fill="#1DAF52"/>
<path opacity="0.3" d="M217.99 197.691H202.981V222.134H217.99V197.691Z" fill="white"/>
<path opacity="0.4" d="M198.316 191.559H173.874L178.545 197.691H202.981L198.316 191.559Z" fill="white"/>
<path d="M207.405 191.559H222.415L217.997 197.691H202.981L207.405 191.559Z" fill="#1DAF52"/>
<path opacity="0.6" d="M202.987 197.691H178.545V222.134H202.987V197.691Z" fill="white"/>
<path opacity="0.2" d="M207.405 191.559H222.415L217.997 197.691H202.981L207.405 191.559Z" fill="white"/>
<path d="M271.759 221.53H210.156V283.133H271.759V221.53Z" fill="#1DAF52"/>
<path opacity="0.4" d="M271.759 221.53H210.156V283.133H271.759V221.53Z" fill="white"/>
<path d="M210.142 221.53H172.303V283.133H210.142V221.53Z" fill="#1DAF52"/>
<path opacity="0.6" d="M210.142 221.53H172.303V283.133H210.142V221.53Z" fill="white"/>
<path opacity="0.5" d="M183.992 221.53V238.076L185.494 238.865L186.791 237.788L188.842 238.865L190.79 237.788L192.3 238.865L194.028 237.788L195.009 238.673V221.53H183.992Z" fill="white"/>
<path opacity="0.5" d="M195.009 283.133V266.586L193.507 265.791L192.21 266.874L190.159 265.791L188.211 266.874L186.702 265.791L184.973 266.874L183.992 265.989V283.133H195.009Z" fill="white"/>
<path d="M235.298 246.651C235.648 248.058 235.819 248.764 236.169 250.171C236.258 250.548 236.306 250.74 236.402 251.124C236.752 252.53 236.924 253.237 237.274 254.643H246.411C246.363 255.014 246.343 255.199 246.301 255.569H237.884C237.973 255.954 238.015 256.146 238.104 256.523H246.96L247.248 254.643C247.461 253.237 247.571 252.53 247.783 251.124C247.845 250.74 247.872 250.548 247.927 250.171C248.14 248.764 248.25 248.058 248.462 246.651C248.51 246.363 248.531 246.219 248.572 245.931H251.762C251.851 245.554 251.899 245.362 251.995 244.984H247.571C247.488 245.67 247.447 245.979 247.372 246.651H235.298ZM246.96 250.171H244.339C244.339 249.142 244.381 248.627 244.415 247.598H247.262C247.111 248.627 247.056 249.142 246.96 250.171ZM244.216 253.69C244.216 252.661 244.264 252.146 244.291 251.124H246.83L246.521 253.69H244.216ZM240.786 251.124H243.317C243.317 252.146 243.317 252.661 243.317 253.69H241.005C240.944 252.661 240.896 252.146 240.786 251.124ZM240.464 247.598H243.31C243.31 248.627 243.31 249.142 243.31 250.171H240.717C240.621 249.142 240.573 248.627 240.484 247.598H240.464ZM237.308 251.124H239.846C239.97 252.146 240.038 252.661 240.169 253.69H237.857L237.308 251.124ZM236.553 247.598H239.414C239.537 248.627 239.606 249.142 239.73 250.171H237.109L236.553 247.598Z" fill="white"/>
<path d="M246.384 259.678C247.009 259.678 247.516 259.172 247.516 258.546C247.516 257.921 247.009 257.415 246.384 257.415C245.759 257.415 245.252 257.921 245.252 258.546C245.252 259.172 245.759 259.678 246.384 259.678Z" fill="white"/>
<path d="M238.351 259.678C238.976 259.678 239.483 259.172 239.483 258.546C239.483 257.921 238.976 257.415 238.351 257.415C237.726 257.415 237.219 257.921 237.219 258.546C237.219 259.172 237.726 259.678 238.351 259.678Z" fill="white"/>
<g opacity="0.5">
<path d="M182.881 246.651C183.231 248.058 183.402 248.764 183.752 250.171C183.841 250.548 183.889 250.74 183.985 251.124C184.335 252.53 184.507 253.237 184.856 254.643H193.994C193.946 255.014 193.925 255.199 193.884 255.569H185.481C185.57 255.954 185.611 256.146 185.7 256.523H194.529L194.817 254.643C195.03 253.237 195.14 252.53 195.352 251.124C195.407 250.74 195.441 250.548 195.496 250.171C195.709 248.764 195.819 248.058 196.031 246.651L196.141 245.931H199.338C199.427 245.554 199.475 245.362 199.571 244.984H195.146C195.064 245.67 195.023 245.979 194.947 246.651H182.881ZM194.543 250.171H191.922L191.998 247.598H194.824C194.707 248.627 194.646 249.142 194.529 250.171H194.543ZM191.799 253.69C191.833 252.661 191.847 252.146 191.874 251.124H194.412L194.104 253.69H191.799ZM188.403 251.124H190.934C190.934 252.146 190.934 252.661 190.934 253.69H188.65C188.54 252.661 188.492 252.146 188.403 251.124ZM188.074 247.598H190.928C190.928 248.627 190.928 249.142 190.928 250.171H188.307L188.074 247.598ZM184.925 251.124H187.463L187.779 253.69H185.474L184.925 251.124ZM184.17 247.598H187.024C187.148 248.627 187.216 249.142 187.34 250.171H184.719L184.17 247.598Z" fill="white"/>
<path d="M193.98 259.679C194.605 259.679 195.112 259.172 195.112 258.547C195.112 257.922 194.605 257.415 193.98 257.415C193.355 257.415 192.848 257.922 192.848 258.547C192.848 259.172 193.355 259.679 193.98 259.679Z" fill="white"/>
<path d="M185.947 259.679C186.572 259.679 187.079 259.172 187.079 258.547C187.079 257.922 186.572 257.415 185.947 257.415C185.322 257.415 184.815 257.922 184.815 258.547C184.815 259.172 185.322 259.679 185.947 259.679Z" fill="white"/>
</g>
<path d="M249.265 172.508C249.265 172.508 251.405 187.868 253.326 190.516C255.247 193.164 263.877 200.49 263.877 200.49L269.33 199.694L272.987 203.124L270.339 204.956L267.423 203.653C265.779 203.835 264.122 203.874 262.47 203.769C259.685 203.598 248.805 196.223 246.802 192.375C244.799 188.526 242.535 174.278 242.535 174.278L249.265 172.508Z" fill="#CE7A63"/>
<path d="M251.076 176.947L250.527 177.043C250.15 173.434 248.641 162.472 244.504 165.285C240.532 167.994 241.65 175.684 242.227 178.559L241.541 178.675L242.144 180.569L251.289 178.82L251.076 176.947Z" fill="#1DAF52"/>
<path opacity="0.2" d="M247.646 169.696L246.638 167.528L243.475 170.711L241.657 173.455C241.708 175.172 241.905 176.882 242.247 178.566L241.561 178.682L242.165 180.576L247.324 179.588C247.898 176.322 248.007 172.992 247.646 169.696Z" fill="black"/>
<path d="M247.962 142.132C247.962 142.132 258.869 144.492 253.072 149.678L248.27 145.487L247.962 142.132Z" fill="#263238"/>
<path d="M263.102 257.305L256.159 274.311L251.344 272.438L255.226 255.535L263.102 257.305Z" fill="#CE7A63"/>
<path opacity="0.2" d="M255.569 254.334L252.832 266.25L258.766 267.574L263.445 256.097L255.569 254.334Z" fill="black"/>
<path d="M257.25 273.913C258.135 275.923 258.732 277.576 262.354 279.723C263.143 280.176 261.805 282.262 259.836 281.377C256.585 279.909 257.435 279.881 254.65 278.674C252.311 277.638 250.568 277.014 248.661 276.218C248.612 276.197 248.566 276.169 248.524 276.136C248.362 276.014 248.254 275.833 248.225 275.633C248.195 275.433 248.246 275.229 248.366 275.065L251.179 271.217C251.241 271.131 251.331 271.069 251.433 271.041C251.536 271.014 251.645 271.022 251.741 271.066L256.296 273.028C256.711 273.198 257.05 273.512 257.25 273.913Z" fill="#263238"/>
<path d="M278.639 217.338C277.755 228.314 261.99 264.597 261.99 264.597L252.633 261.99C252.633 261.99 259.781 227.134 264.446 221.365C264.446 221.365 262.923 221.365 260.474 221.413C251.947 221.489 232.184 221.475 226.483 219.959C222.415 218.875 213.915 216.7 216.193 203.09L226.73 202.727L239.002 202.301C239.002 202.301 279.888 202.37 278.639 217.338Z" fill="#263238"/>
<path opacity="0.2" d="M260.474 221.413C251.947 221.489 232.184 221.475 226.483 219.959C222.415 218.875 213.915 216.7 216.193 203.09L226.73 202.727C235.024 203.708 245.862 205.347 253.251 208.523C256.845 210.067 259.342 212.852 260.076 216.131C260.329 217.881 260.462 219.645 260.474 221.413Z" fill="black"/>
<path d="M246.83 256.701L243.359 274.036L238.138 273.796L238.755 256.461L246.83 256.701Z" fill="#CE7A63"/>
<path opacity="0.2" d="M246.83 256.701L238.755 256.461L238.399 266.826L244.758 267.053L246.83 256.701Z" fill="black"/>
<path d="M244.154 274.448C245.005 276.506 245.526 278.235 249.183 280.526C249.965 281.034 248.538 283.126 246.569 282.152C243.304 280.553 244.175 280.56 241.369 279.236C239.002 278.118 237.253 277.425 235.339 276.554L235.195 276.485C235.114 276.422 235.046 276.344 234.995 276.254C234.944 276.165 234.912 276.066 234.9 275.964C234.888 275.862 234.896 275.758 234.924 275.659C234.953 275.56 235 275.468 235.065 275.388L238.049 271.539C238.113 271.454 238.205 271.393 238.309 271.368C238.413 271.343 238.522 271.355 238.618 271.402L243.187 273.536C243.612 273.709 243.956 274.034 244.154 274.448Z" fill="#263238"/>
<path d="M210.033 203.056C210.033 203.056 207.049 213.778 211.981 218.011C218.875 223.931 243.784 222.127 243.784 222.127C239.483 235.895 237.562 263.246 237.562 263.246H246.898C246.898 263.246 259.617 225.831 257.737 216.159C255.857 206.486 222.49 203.063 222.49 203.063L210.033 203.056Z" fill="#263238"/>
<path d="M251.803 263.074L262.395 265.743L264.556 261.208L252.921 257.908L251.803 263.074Z" fill="#1DAF52"/>
<path d="M236.636 264.576L247.44 265.132L248.558 260.378L236.636 259.823V264.576Z" fill="#1DAF52"/>
<path d="M241.589 188.232C244.333 180.144 247.763 173.99 248.16 167.096C238.769 153.54 220.405 161.553 220.405 161.553C209.292 182.407 210.033 203.056 210.033 203.056C235.284 203.056 236.732 202.624 236.732 202.624C236.732 202.624 236.821 199.077 241.589 188.232Z" fill="#1DAF52"/>
<path opacity="0.2" d="M233.11 161.155C233.514 163.542 234.358 167.85 235.36 168.475C236.732 169.312 238.79 168.139 238.79 168.139C238.79 168.139 240.457 170.395 242.22 168.893C243.21 167.945 243.982 166.794 244.484 165.518C243.965 166.402 243.309 167.198 242.542 167.878C240.759 169.373 239.112 167.123 239.112 167.123C239.112 167.123 237.054 168.289 235.682 167.459C234.777 166.917 233.72 163.508 233.11 161.155Z" fill="black"/>
<path d="M235.373 157.862L237.877 158.72L235.915 160.442L235.373 157.862Z" fill="#1DAF52"/>
<path opacity="0.2" d="M235.373 157.862L237.877 158.72L235.915 160.442L235.373 157.862Z" fill="black"/>
<path d="M243.331 160.442L244.017 162.5C244.017 162.5 240.436 166.245 239.407 166.286C238.378 166.327 235.36 159.241 235.36 159.241C239.345 157.437 238.975 155.454 238.975 155.454L243.331 160.442Z" fill="#CE7A63"/>
<path opacity="0.2" d="M242.028 164.414C243.084 163.446 244.031 162.465 244.031 162.465L243.345 160.407L239.469 155.928C238.961 157.91 238.467 161.985 242.028 164.414Z" fill="black"/>
<path d="M245.375 163.954C244.731 165.463 243.777 166.821 242.576 167.94C240.786 169.435 239.146 167.192 239.146 167.192C239.146 167.192 237.088 168.351 235.716 167.521C234.344 166.691 232.554 159.077 232.554 159.077L235.373 157.862L239.256 166.094L244.49 161.766L245.375 163.954Z" fill="#1DAF52"/>
<path d="M238.838 148.498C238.832 147.28 239.147 146.082 239.751 145.024C240.355 143.967 241.226 143.086 242.278 142.472C243.329 141.857 244.524 141.53 245.742 141.524C246.96 141.517 248.159 141.831 249.217 142.434C254.197 145.116 254.335 152.951 252.853 157.526C252.495 158.728 251.814 159.809 250.885 160.651C249.956 161.493 248.813 162.064 247.582 162.303C246.351 162.541 245.078 162.437 243.901 162.003C242.725 161.568 241.69 160.819 240.909 159.838C238.467 156.833 238.783 153.753 238.851 148.464L238.838 148.498Z" fill="#CE7A63"/>
<path d="M248.112 151.777C248.401 151.777 248.579 152.196 248.504 152.614C248.428 153.033 248.174 153.3 247.893 153.3C247.612 153.3 247.433 152.882 247.502 152.463C247.571 152.045 247.824 151.757 248.112 151.777Z" fill="#263238"/>
<path d="M252.866 152.669C253.161 152.669 253.34 153.074 253.271 153.499C253.203 153.925 252.935 154.185 252.647 154.185C252.359 154.185 252.194 153.774 252.256 153.348C252.318 152.923 252.578 152.635 252.866 152.669Z" fill="#263238"/>
<path d="M246.837 150.776C247.082 150.586 247.37 150.458 247.675 150.402C247.981 150.345 248.295 150.363 248.593 150.453C248.654 150.473 248.72 150.469 248.778 150.44C248.835 150.412 248.88 150.363 248.901 150.302C248.92 150.24 248.915 150.172 248.887 150.113C248.859 150.053 248.811 150.006 248.75 149.98C248.368 149.865 247.963 149.845 247.571 149.922C247.179 149.998 246.812 150.169 246.5 150.419C246.464 150.443 246.436 150.477 246.419 150.517C246.402 150.557 246.398 150.601 246.406 150.643C246.414 150.686 246.434 150.725 246.464 150.756C246.495 150.787 246.533 150.808 246.576 150.817C246.618 150.839 246.666 150.847 246.713 150.84C246.76 150.833 246.803 150.81 246.837 150.776Z" fill="#263238"/>
<path d="M254.067 152.114C254.122 152.078 254.162 152.023 254.177 151.959C254.193 151.895 254.183 151.827 254.149 151.771C253.954 151.42 253.68 151.119 253.347 150.894C253.015 150.669 252.634 150.525 252.235 150.474C252.182 150.476 252.132 150.495 252.091 150.528C252.05 150.562 252.021 150.608 252.009 150.659C252.001 150.691 251.999 150.725 252.004 150.757C252.009 150.79 252.021 150.821 252.038 150.849C252.055 150.878 252.078 150.902 252.105 150.921C252.132 150.94 252.162 150.954 252.194 150.961C252.516 151.01 252.822 151.133 253.089 151.32C253.355 151.507 253.575 151.752 253.731 152.038C253.749 152.074 253.776 152.105 253.81 152.128C253.844 152.151 253.882 152.165 253.923 152.169C253.975 152.164 254.025 152.145 254.067 152.114Z" fill="#263238"/>
<path d="M250.047 157.348C250.37 157.495 250.721 157.571 251.076 157.571C251.431 157.571 251.782 157.495 252.105 157.348C251.475 156.068 251.014 154.712 250.733 153.314L250.047 157.348Z" fill="#BA4D3C"/>
<path d="M238.508 151.922C236.45 144.444 239.778 142.496 243.372 141.151C246.967 139.807 248.963 141.096 250.109 142.359C250.465 142.757 251.179 143.95 248.874 144.108C247.478 144.162 246.081 144.054 244.71 143.786C244.436 143.738 244.154 143.766 243.895 143.868C243.636 143.969 243.41 144.14 243.242 144.362C242.446 145.405 241.184 147.353 241.184 149.054C241.232 149.701 241.138 150.351 240.908 150.958C240.678 151.564 240.318 152.113 239.853 152.566L238.508 151.922Z" fill="#263238"/>
<path d="M235.915 189.5C236.094 189.502 236.269 189.556 236.417 189.657C236.565 189.758 236.68 189.9 236.748 190.066C236.815 190.232 236.832 190.414 236.795 190.589C236.759 190.765 236.672 190.925 236.544 191.051C236.416 191.177 236.254 191.262 236.078 191.295C235.903 191.329 235.721 191.31 235.556 191.24C235.391 191.17 235.25 191.053 235.152 190.903C235.053 190.754 235.002 190.578 235.003 190.399C235.003 190.279 235.027 190.161 235.073 190.05C235.12 189.94 235.188 189.84 235.273 189.756C235.359 189.673 235.461 189.607 235.572 189.563C235.683 189.519 235.803 189.498 235.922 189.5H235.915Z" fill="#1DAF52"/>
<path d="M233.926 199.077C234.045 199.077 234.163 199.101 234.272 199.146C234.382 199.192 234.482 199.258 234.566 199.342C234.65 199.426 234.717 199.526 234.763 199.636C234.808 199.746 234.831 199.864 234.831 199.983C234.831 200.102 234.808 200.219 234.763 200.329C234.717 200.439 234.65 200.539 234.566 200.623C234.482 200.707 234.382 200.774 234.272 200.819C234.163 200.865 234.045 200.888 233.926 200.888C233.685 200.886 233.455 200.789 233.285 200.619C233.116 200.448 233.02 200.217 233.02 199.976C233.02 199.857 233.044 199.74 233.09 199.63C233.135 199.521 233.202 199.421 233.286 199.338C233.37 199.254 233.47 199.188 233.58 199.144C233.69 199.099 233.807 199.076 233.926 199.077Z" fill="#1DAF52"/>
<path d="M238.563 150.234C240.018 150.495 240.717 152.546 240.731 153.89C240.745 155.235 239.702 156.422 238.419 155.564C237.446 154.892 236.76 153.878 236.498 152.724C236.217 151.277 237.116 149.946 238.563 150.234Z" fill="#CE7A63"/>
<path d="M245.204 157.272C246.78 157.717 248.31 158.312 249.773 159.049C249.322 159.532 248.718 159.845 248.063 159.935C247.408 160.025 246.743 159.886 246.178 159.543C245.959 159.466 245.759 159.344 245.589 159.185C245.42 159.026 245.285 158.834 245.194 158.621C245.102 158.408 245.056 158.178 245.057 157.945C245.059 157.713 245.109 157.484 245.204 157.272Z" fill="#263238"/>
<path d="M247.31 159.152C246.68 158.816 245.959 158.688 245.252 158.788C245.469 159.136 245.787 159.409 246.164 159.57C246.794 159.908 247.515 160.035 248.222 159.934C248.011 159.581 247.691 159.307 247.31 159.152Z" fill="#A02724"/>
<path d="M245.368 157.313C245.344 157.448 245.359 157.587 245.41 157.715C245.461 157.842 245.546 157.953 245.657 158.034C246.627 158.483 247.635 158.848 248.668 159.125C248.827 159.184 248.998 159.203 249.166 159.179C249.334 159.155 249.493 159.089 249.629 158.987C248.254 158.32 246.83 157.76 245.368 157.313Z" fill="white"/>
<path d="M250.622 207.638L263.038 207.706L263.049 205.709L250.633 205.642L250.622 207.638Z" fill="#263238"/>
<path d="M251.643 207.646L235.865 207.561C235.743 207.56 235.622 207.536 235.509 207.488C235.396 207.441 235.293 207.371 235.207 207.284C235.121 207.197 235.053 207.094 235.007 206.981C234.96 206.867 234.937 206.746 234.937 206.623L234.943 205.567L251.654 205.657L251.643 207.653L251.643 207.646Z" fill="#263238"/>
<path opacity="0.3" d="M251.643 207.646L235.865 207.561C235.743 207.56 235.622 207.536 235.509 207.488C235.396 207.441 235.293 207.371 235.207 207.284C235.121 207.197 235.053 207.094 235.007 206.981C234.96 206.867 234.937 206.746 234.937 206.623L234.943 205.567L251.654 205.657L251.643 207.653L251.643 207.646Z" fill="white"/>
<path d="M247.147 206.979L249.143 206.99L249.147 206.284L247.151 206.273L247.147 206.979Z" fill="#263238"/>
<path d="M244.032 206.976L246.028 206.987L246.032 206.28L244.036 206.269L244.032 206.976Z" fill="#263238"/>
<path d="M254.012 205.676L252.688 205.67L257.97 187.683L259.294 187.689L254.012 205.676Z" fill="#263238"/>
<path opacity="0.3" d="M254.012 205.676L252.688 205.67L257.97 187.683L259.294 187.689L254.012 205.676Z" fill="white"/>
<path d="M253.525 205.676L276.828 205.8L282.111 187.806L258.807 187.683L253.525 205.676Z" fill="#263238"/>
<path opacity="0.6" d="M253.525 205.676L276.828 205.8L282.111 187.806L258.807 187.683L253.525 205.676Z" fill="white"/>
<path d="M252.386 205.67L276.643 205.8C277.048 205.8 277.377 206.253 277.377 206.802C277.377 207.35 277.041 207.796 276.629 207.796L252.373 207.666C251.968 207.666 251.638 207.213 251.638 206.664C251.638 206.116 251.975 205.67 252.386 205.67Z" fill="#263238"/>
<path opacity="0.5" d="M252.386 205.67L276.643 205.8C277.048 205.8 277.377 206.253 277.377 206.802C277.377 207.35 277.041 207.796 276.629 207.796L252.373 207.666C251.968 207.666 251.638 207.213 251.638 206.664C251.638 206.116 251.975 205.67 252.386 205.67Z" fill="white"/>
<path d="M251.638 206.664C251.638 207.213 251.968 207.659 252.373 207.666C252.777 207.673 253.113 207.22 253.12 206.671C253.127 206.122 252.791 205.67 252.386 205.67C251.981 205.67 251.645 206.116 251.638 206.664Z" fill="#263238"/>
<path opacity="0.3" d="M251.638 206.664C251.638 207.213 251.968 207.659 252.373 207.666C252.777 207.673 253.113 207.22 253.12 206.671C253.127 206.122 252.791 205.67 252.386 205.67C251.981 205.67 251.645 206.116 251.638 206.664Z" fill="white"/>
<path opacity="0.2" d="M228.733 189.014C227.615 187.477 226.428 181.783 225.598 177.077L226.675 176.871L226.421 174.923L225.859 175.026C225.468 171.349 223.945 160.291 219.822 162.678C218.621 165.01 217.565 167.356 216.646 169.675C216.564 171.993 216.762 174.313 217.236 176.583L216.55 176.707L217.181 178.675L218.642 178.401C219.513 182.942 220.782 188.691 221.962 190.969C223.513 193.96 230.194 198.954 234.667 201.382C239.695 200.49 240.841 199.859 240.841 199.859C240.697 199.67 240.579 199.462 240.491 199.242L239.682 199.358C239.682 199.358 230.729 191.764 228.733 189.014Z" fill="black"/>
<path d="M227.505 170.389C227.505 170.389 228.973 186.42 230.839 189.261C232.705 192.101 241.301 200.127 241.301 200.127L246.994 199.564L250.616 203.33L247.783 205.114L244.82 203.612C243.105 203.725 241.383 203.686 239.675 203.495C236.8 203.179 225.872 195.03 223.979 190.914C222.086 186.798 220.432 171.932 220.432 171.932L227.505 170.389Z" fill="#CE7A63"/>
<path d="M228.781 173.846L228.212 173.949C227.821 170.203 226.25 158.816 221.962 161.738C217.846 164.551 218.992 172.536 219.595 175.52L218.909 175.643L219.541 177.612L229.035 175.794L228.781 173.846Z" fill="#1DAF52"/>
<path d="M90.0169 228.822L88.3774 228.733L88.7615 221.297C88.9188 218.832 90.0013 216.517 91.7923 214.817C93.5833 213.116 95.9507 212.155 98.4204 212.125C99.618 212.113 100.805 212.348 101.908 212.816C103.01 213.283 104.005 213.973 104.829 214.842C105.653 215.711 106.289 216.741 106.697 217.867C107.105 218.993 107.277 220.191 107.201 221.386L106.81 228.822L105.171 228.733L105.562 221.297C105.627 220.323 105.49 219.346 105.16 218.428C104.829 217.51 104.313 216.67 103.642 215.961C102.971 215.253 102.161 214.69 101.262 214.31C100.364 213.929 99.3962 213.739 98.4204 213.751C96.3698 213.776 94.4045 214.576 92.9186 215.989C91.4327 217.403 90.5358 219.325 90.4079 221.372L90.0169 228.822Z" fill="#263238"/>
<path d="M125.188 225.516H76.7085L75.0621 283.037L82.2514 281.39L89.4407 283.037H126.835L125.188 225.516Z" fill="#1DAF52"/>
<path opacity="0.6" d="M125.188 225.516H76.7085L75.0621 283.037L82.2514 281.39L89.4407 283.037H126.835L125.188 225.516Z" fill="white"/>
<path d="M89.4407 283.037L82.2514 281.39L75.0621 283.037L76.7085 225.516H87.8012L89.4407 283.037Z" fill="#1DAF52"/>
<path opacity="0.3" d="M89.4407 283.037L82.2514 281.39L75.0621 283.037L76.7085 225.516H87.8012L89.4407 283.037Z" fill="white"/>
<path d="M114.926 228.822L114.562 221.386C114.434 219.338 113.536 217.414 112.049 216.001C110.561 214.587 108.595 213.788 106.543 213.764C105.568 213.754 104.601 213.945 103.703 214.326C102.805 214.707 101.996 215.269 101.326 215.978C100.656 216.686 100.14 217.526 99.8096 218.444C99.4796 219.361 99.343 220.337 99.4083 221.31L99.7993 228.747L98.1598 228.836L97.7688 221.4C97.6923 220.205 97.8631 219.007 98.2705 217.881C98.678 216.755 99.3133 215.726 100.137 214.856C100.96 213.987 101.954 213.297 103.056 212.83C104.159 212.362 105.345 212.127 106.543 212.139C109.013 212.167 111.381 213.127 113.173 214.829C114.964 216.53 116.046 218.845 116.202 221.31L116.593 228.747L114.926 228.822Z" fill="#263238"/>
<g opacity="0.2">
<path d="M114.926 228.822L114.562 221.386C114.434 219.338 113.536 217.414 112.049 216.001C110.561 214.587 108.595 213.788 106.543 213.764C105.568 213.754 104.601 213.945 103.703 214.326C102.805 214.707 101.996 215.269 101.326 215.978C100.656 216.686 100.14 217.526 99.8096 218.444C99.4796 219.361 99.343 220.337 99.4083 221.31L99.7993 228.747L98.1598 228.836L97.7688 221.4C97.6923 220.205 97.8631 219.007 98.2705 217.881C98.678 216.755 99.3133 215.726 100.137 214.856C100.96 213.987 101.954 213.297 103.056 212.83C104.159 212.362 105.345 212.127 106.543 212.139C109.013 212.167 111.381 213.127 113.173 214.829C114.964 216.53 116.046 218.845 116.202 221.31L116.593 228.747L114.926 228.822Z" fill="white"/>
</g>
<path d="M118.637 246.521H96.0949C95.5872 246.521 95.1757 246.933 95.1757 247.44V251.083C95.1757 251.591 95.5872 252.002 96.0949 252.002H118.637C119.145 252.002 119.556 251.591 119.556 251.083V247.44C119.556 246.933 119.145 246.521 118.637 246.521Z" fill="white"/>
<path d="M67.7357 246.692L66.6312 246.631L66.8919 241.65C66.9907 239.993 67.7136 238.435 68.9152 237.289C70.1168 236.144 71.7077 235.496 73.3677 235.476C74.1675 235.468 74.9604 235.625 75.6972 235.936C76.434 236.247 77.099 236.707 77.6509 237.286C78.2028 237.865 78.6298 238.551 78.9055 239.302C79.1812 240.052 79.2997 240.852 79.2536 241.65L78.9929 246.638L77.8953 246.576L78.156 241.595C78.1977 240.942 78.1039 240.288 77.8806 239.673C77.6573 239.058 77.3092 238.496 76.8583 238.022C76.4074 237.548 75.8634 237.172 75.2603 236.918C74.6573 236.664 74.0083 236.538 73.354 236.547C71.98 236.563 70.6629 237.098 69.6668 238.044C68.6707 238.991 68.0691 240.279 67.9826 241.65L67.7357 246.692Z" fill="#263238"/>
<path d="M91.3135 244.477H58.8108L57.7132 283.037L62.5289 281.932L67.3515 283.037H92.4179L91.3135 244.477Z" fill="#1DAF52"/>
<path d="M67.3515 283.037L62.5289 281.932L57.7132 283.037L58.8108 244.477H66.247L67.3515 283.037Z" fill="#1DAF52"/>
<path opacity="0.2" d="M67.3515 283.037L62.5289 281.932L57.7132 283.037L58.8108 244.477H66.247L67.3515 283.037Z" fill="black"/>
<path d="M84.4329 246.692L84.1722 241.705C84.0764 240.336 83.4709 239.053 82.4754 238.108C81.4798 237.163 80.1663 236.625 78.794 236.601C78.1392 236.59 77.4892 236.715 76.8852 236.969C76.2812 237.222 75.7363 237.597 75.285 238.072C74.8336 238.547 74.4857 239.11 74.2631 239.726C74.0406 240.341 73.9482 240.997 73.992 241.65L74.2527 246.631L73.1551 246.692L72.8875 241.705C72.8425 240.907 72.9616 240.108 73.2377 239.358C73.5138 238.607 73.9409 237.921 74.4926 237.343C75.0443 236.764 75.7088 236.305 76.4452 235.993C77.1815 235.682 77.9739 235.524 78.7734 235.531C80.4334 235.551 82.0244 236.199 83.226 237.344C84.4275 238.49 85.1505 240.048 85.2492 241.705L85.5099 246.686L84.4329 246.692Z" fill="#263238"/>
<g opacity="0.2">
<path d="M84.4329 246.692L84.1722 241.705C84.0764 240.336 83.4709 239.053 82.4754 238.108C81.4798 237.163 80.1663 236.625 78.794 236.601C78.1392 236.59 77.4892 236.715 76.8852 236.969C76.2812 237.222 75.7363 237.597 75.285 238.072C74.8336 238.547 74.4857 239.11 74.2631 239.726C74.0406 240.341 73.9482 240.997 73.992 241.65L74.2527 246.631L73.1551 246.692L72.8875 241.705C72.8425 240.907 72.9616 240.108 73.2377 239.358C73.5138 238.607 73.9409 237.921 74.4926 237.343C75.0443 236.764 75.7088 236.305 76.4452 235.993C77.1815 235.682 77.9739 235.524 78.7734 235.531C80.4334 235.551 82.0244 236.199 83.226 237.344C84.4275 238.49 85.1505 240.048 85.2492 241.705L85.5099 246.686L84.4329 246.692Z" fill="white"/>
</g>
<path d="M86.6144 258.56H72.1124C71.6047 258.56 71.1931 258.972 71.1931 259.48V261.311C71.1931 261.819 71.6047 262.23 72.1124 262.23H86.6144C87.1221 262.23 87.5336 261.819 87.5336 261.311V259.48C87.5336 258.972 87.1221 258.56 86.6144 258.56Z" fill="white"/>
<path d="M117.773 279.271L112.552 278.729L112.813 266.531L118.033 267.073L117.773 279.271Z" fill="#B55B52"/>
<path d="M161.937 261.778L157.265 264.158L150.241 254.087L154.919 251.707L161.937 261.778Z" fill="#B55B52"/>
<path d="M156.291 263.506L161.093 260.076C161.175 260.016 161.276 259.988 161.377 259.997C161.478 260.006 161.572 260.051 161.642 260.124L164.894 263.554C164.973 263.643 165.032 263.746 165.069 263.859C165.105 263.972 165.117 264.091 165.104 264.209C165.091 264.327 165.053 264.441 164.993 264.543C164.934 264.645 164.853 264.734 164.757 264.803C163.062 265.969 162.184 266.442 160.071 267.952C158.775 268.878 156.971 270.366 155.18 271.642C153.39 272.918 152.024 271.217 152.656 270.524C155.489 267.416 155.31 266.044 155.763 264.295C155.84 263.978 156.027 263.698 156.291 263.506Z" fill="#263238"/>
<path d="M112.106 278.07L117.971 278.681C118.072 278.689 118.166 278.734 118.236 278.808C118.306 278.881 118.346 278.977 118.349 279.079L118.534 283.791C118.535 283.91 118.51 284.028 118.462 284.136C118.414 284.245 118.344 284.342 118.256 284.422C118.168 284.502 118.064 284.562 117.951 284.598C117.838 284.635 117.719 284.648 117.601 284.635C115.543 284.381 114.589 284.162 112.01 283.894C110.419 283.723 105.836 283.414 103.655 283.208C101.473 283.002 101.597 280.8 102.509 280.698C106.687 280.245 109.705 279.326 111.201 278.317C111.464 278.131 111.785 278.043 112.106 278.07Z" fill="#263238"/>
<g opacity="0.2">
<path d="M112.813 266.531L112.676 272.822L117.903 273.364L118.033 267.08L112.813 266.531Z" fill="black"/>
<path d="M154.919 251.714L150.241 254.094L153.863 259.28L158.542 256.9L154.919 251.714Z" fill="black"/>
</g>
<path d="M115.31 161.162C115.31 161.162 109.897 201.451 109.76 217.462C109.595 234.118 111.708 271.505 111.708 271.505L118.767 272.239C118.767 272.239 121.635 235.469 122.773 219.149C124.022 201.348 130.937 161.663 130.937 161.663L115.31 161.162Z" fill="#263238"/>
<path d="M119.33 272.548L111.043 271.683L110.714 268.98L120.023 269.625L119.33 272.548Z" fill="#1DAF52"/>
<path opacity="0.6" d="M124.166 171.5C118.596 181.865 122.177 201.204 123.802 208.407C125.085 197.705 127.102 184.637 128.652 175.047C128.049 169.572 126.752 166.732 124.166 171.5Z" fill="black"/>
<path d="M120.935 161.34C120.935 161.34 124.44 203.509 127.658 217.112C131.479 233.267 152.182 258.773 152.182 258.773L158.562 255.528C158.562 255.528 144.533 227.183 141.494 218.635C134.998 200.408 141.892 173.764 136.617 161.834L120.935 161.34Z" fill="#263238"/>
<path d="M159.468 255.487L151.551 259.514L149.445 257.456L158.541 252.297L159.468 255.487Z" fill="#1DAF52"/>
<path d="M154.446 265.66H154.384C154.264 265.645 154.15 265.598 154.053 265.525C153.957 265.451 153.882 265.354 153.836 265.242C153.798 265.177 153.777 265.104 153.777 265.029C153.777 264.954 153.798 264.881 153.836 264.816C154.172 264.233 156.065 264.13 156.278 264.13C156.302 264.13 156.327 264.137 156.348 264.15C156.368 264.164 156.385 264.183 156.394 264.206C156.409 264.224 156.418 264.247 156.418 264.271C156.418 264.295 156.409 264.318 156.394 264.336C155.935 264.851 155.105 265.681 154.446 265.66ZM155.99 264.398C155.235 264.453 154.227 264.631 154.048 264.933C154.031 264.962 154.022 264.995 154.022 265.029C154.022 265.063 154.031 265.096 154.048 265.125C154.079 265.2 154.128 265.265 154.192 265.314C154.256 265.364 154.332 265.396 154.412 265.406C154.768 265.482 155.352 265.077 155.99 264.398Z" fill="#1DAF52"/>
<path d="M156.106 264.384C155.454 264.384 154.268 264.021 154.048 263.52C154.008 263.43 154 263.328 154.027 263.233C154.053 263.138 154.111 263.055 154.192 262.999C154.261 262.933 154.343 262.883 154.433 262.853C154.524 262.823 154.619 262.815 154.714 262.827C155.475 262.909 156.353 264.13 156.394 264.199C156.405 264.218 156.41 264.239 156.41 264.261C156.41 264.282 156.405 264.304 156.394 264.323C156.385 264.342 156.37 264.359 156.352 264.371C156.334 264.383 156.313 264.39 156.291 264.391C156.23 264.395 156.167 264.393 156.106 264.384ZM154.645 263.074C154.591 263.07 154.537 263.076 154.487 263.094C154.436 263.112 154.389 263.14 154.35 263.177C154.233 263.287 154.247 263.362 154.268 263.417C154.419 263.753 155.4 264.103 156.038 264.137C155.722 263.746 155.132 263.122 154.666 263.074H154.645Z" fill="#1DAF52"/>
<path d="M110.055 278.777C109.604 278.771 109.168 278.611 108.82 278.324C108.744 278.241 108.689 278.141 108.66 278.032C108.631 277.923 108.63 277.809 108.656 277.7C108.667 277.632 108.696 277.568 108.74 277.514C108.783 277.46 108.839 277.418 108.902 277.391C109.588 277.11 111.55 278.386 111.77 278.537C111.792 278.549 111.81 278.569 111.819 278.592C111.829 278.616 111.831 278.642 111.825 278.667C111.819 278.692 111.805 278.716 111.786 278.733C111.766 278.75 111.741 278.761 111.715 278.763C111.163 278.82 110.608 278.824 110.055 278.777ZM109.232 277.597C109.155 277.582 109.076 277.582 108.999 277.597C108.973 277.608 108.95 277.626 108.933 277.649C108.917 277.672 108.906 277.699 108.902 277.727C108.883 277.798 108.883 277.872 108.901 277.943C108.919 278.014 108.955 278.079 109.005 278.132C109.294 278.454 110.144 278.591 111.324 278.523C110.683 278.101 109.976 277.788 109.232 277.597Z" fill="#1DAF52"/>
<path d="M111.688 278.763C111.688 278.763 111.653 278.763 111.64 278.763C111.05 278.42 109.932 277.164 110.089 276.581C110.13 276.444 110.247 276.28 110.59 276.28C110.718 276.277 110.846 276.301 110.964 276.35C111.082 276.4 111.188 276.474 111.276 276.568C111.873 277.185 111.852 278.626 111.845 278.66C111.846 278.681 111.841 278.702 111.83 278.721C111.819 278.739 111.803 278.754 111.784 278.763C111.753 278.774 111.719 278.774 111.688 278.763ZM110.666 276.513H110.59C110.364 276.513 110.343 276.595 110.329 276.629C110.24 276.979 110.981 277.947 111.578 278.399C111.586 277.801 111.411 277.215 111.077 276.719C110.968 276.605 110.822 276.532 110.666 276.513Z" fill="#1DAF52"/>
<path d="M113.06 139.745C111.117 142.34 108.94 144.751 106.556 146.948C105.295 148.131 103.916 149.182 102.44 150.083C101.571 150.616 100.634 151.031 99.6553 151.318C99.0356 151.497 98.3932 151.585 97.7482 151.578C97.3629 151.574 96.979 151.53 96.6026 151.448C96.4105 151.4 96.2047 151.338 96.0126 151.27C95.7871 151.191 95.569 151.092 95.3609 150.975C94.8759 150.713 94.4525 150.35 94.1192 149.911C93.8637 149.587 93.6537 149.229 93.495 148.848C93.26 148.296 93.1008 147.714 93.0216 147.119C92.9011 146.199 92.8666 145.268 92.9187 144.341C93.033 142.701 93.2622 141.071 93.6047 139.464C94.2331 136.363 95.0906 133.313 96.1704 130.34L99.0104 131.074C98.6057 134.058 98.2284 137.104 98.002 140.054C97.8777 141.484 97.841 142.92 97.8922 144.355C97.9056 144.967 97.9815 145.576 98.1186 146.173C98.152 146.338 98.2098 146.498 98.2901 146.646C98.3313 146.715 98.2901 146.502 97.8922 146.248C97.7482 146.18 97.7962 146.186 97.7619 146.18C97.8813 146.152 97.9983 146.116 98.1118 146.07C98.5955 145.872 99.0557 145.622 99.4838 145.322C100.583 144.537 101.618 143.665 102.578 142.715C103.6 141.721 104.581 140.657 105.548 139.539C106.515 138.421 107.483 137.282 108.367 136.191L113.06 139.745Z" fill="#B55B52"/>
<path d="M111.914 132.192C109.767 131.602 103.394 139.738 103.394 139.738L109.486 146.536C109.486 146.536 116.627 140.088 116.346 137.2C116.078 134.182 115.056 133.084 111.914 132.192Z" fill="#1DAF52"/>
<path d="M99.0858 130.34L98.8457 126.066L94.7297 129.455C94.7297 129.455 95.354 132.768 97.4326 133.427L98.7154 131.623C98.978 131.248 99.1084 130.797 99.0858 130.34Z" fill="#B55B52"/>
<path d="M96.1635 122.54L92.8707 125.572L94.7229 129.441L98.8458 126.052L96.1635 122.54Z" fill="#B55B52"/>
<path d="M94.4897 130.806L93.5361 130.463C93.2786 130.367 93.0632 130.182 92.9278 129.943C92.7924 129.703 92.7455 129.424 92.7952 129.153L94.2427 121.456L96.8426 122.403L96.04 129.839C96.0228 130.015 95.9654 130.184 95.8723 130.334C95.7792 130.485 95.6529 130.611 95.5031 130.705C95.3532 130.798 95.1839 130.856 95.0082 130.874C94.8325 130.891 94.6551 130.868 94.4897 130.806Z" fill="#263238"/>
<path d="M101.343 121.031C101.507 120.585 101.665 120.146 101.809 119.707C101.224 118.763 100.439 117.958 99.5112 117.347C99.1682 118.191 98.8252 119.076 98.489 119.988C98.1529 120.901 97.8511 121.799 97.5767 122.671C98.6806 122.798 99.7992 122.686 100.856 122.341C101.02 121.909 101.185 121.477 101.343 121.031Z" fill="#263238"/>
<path d="M99.6209 120.407C100.026 119.338 100.318 118.23 100.492 117.1L91.9652 113.992L89.6465 120.365L98.1803 123.48C98.7656 122.508 99.2484 121.478 99.6209 120.407Z" fill="#1DAF52"/>
<path opacity="0.6" d="M99.6209 120.407C100.026 119.338 100.318 118.23 100.492 117.1L91.9652 113.992L89.6465 120.365L98.1803 123.48C98.7656 122.508 99.2484 121.478 99.6209 120.407Z" fill="white"/>
<path d="M94.181 114.205C93.7968 114.061 84.577 104.601 83.548 104.196C82.519 103.792 80.0288 107.551 78.1903 112.6C76.3518 117.649 75.7756 122.067 76.8938 122.478C78.0119 122.89 91.0802 121.511 91.4713 121.648C91.8623 121.785 92.905 120.276 93.6527 118.218C94.4005 116.16 94.668 114.37 94.181 114.205Z" fill="#1DAF52"/>
<path opacity="0.4" d="M94.181 114.205C93.7968 114.061 84.577 104.601 83.548 104.196C82.519 103.792 80.0288 107.551 78.1903 112.6C76.3518 117.649 75.7756 122.067 76.8938 122.478C78.0119 122.89 91.0802 121.511 91.4713 121.648C91.8623 121.785 92.905 120.276 93.6527 118.218C94.4005 116.16 94.668 114.37 94.181 114.205Z" fill="white"/>
<path d="M82.2514 114.075C80.4129 119.124 78.0119 122.883 76.8938 122.478C75.7756 122.074 76.3518 117.676 78.1903 112.6C80.0288 107.524 82.4298 103.792 83.548 104.197C84.6661 104.601 84.0899 109.033 82.2514 114.075Z" fill="#1DAF52"/>
<path d="M79.576 113.087C79.4525 113.423 79.3359 113.773 79.2261 114.082C79.8592 114.875 80.6337 115.545 81.5105 116.057C81.7712 115.426 82.0319 114.761 82.2857 114.075C82.5395 113.389 82.759 112.703 82.9717 112.058C81.9712 111.888 80.9479 111.904 79.9533 112.106C79.7818 112.428 79.6583 112.758 79.576 113.087Z" fill="#263238"/>
<path opacity="0.7" d="M79.576 113.087C79.4525 113.423 79.3359 113.773 79.2261 114.082C79.8592 114.875 80.6337 115.545 81.5105 116.057C81.7712 115.426 82.0319 114.761 82.2857 114.075C82.5395 113.389 82.759 112.703 82.9717 112.058C81.9712 111.888 80.9479 111.904 79.9533 112.106C79.7818 112.428 79.6583 112.758 79.576 113.087Z" fill="white"/>
<path opacity="0.2" d="M110.117 136.974C110.432 141.536 109.369 144.252 108.614 145.562L109.486 146.53C109.486 146.53 113.512 142.894 115.406 139.862C113.279 136.706 109.76 132.178 110.117 136.974Z" fill="black"/>
<path d="M134.099 111.029C136.96 111.029 139.279 108.71 139.279 105.85C139.279 102.989 136.96 100.67 134.099 100.67C131.239 100.67 128.92 102.989 128.92 105.85C128.92 108.71 131.239 111.029 134.099 111.029Z" fill="#263238"/>
<path d="M133.544 108.21C133.545 108.854 133.355 109.485 132.998 110.022C132.641 110.559 132.132 110.977 131.537 111.225C130.942 111.473 130.286 111.538 129.654 111.413C129.021 111.288 128.44 110.978 127.983 110.523C127.527 110.068 127.216 109.487 127.09 108.855C126.963 108.222 127.028 107.567 127.274 106.971C127.52 106.375 127.938 105.866 128.474 105.508C129.01 105.149 129.64 104.958 130.285 104.958C131.148 104.958 131.976 105.3 132.587 105.91C133.198 106.52 133.542 107.347 133.544 108.21Z" fill="#1DAF52"/>
<path d="M119.94 104.169C119.94 104.169 113.08 103.607 113.08 115.406C113.08 123.487 117.004 127.226 121.813 124.509C121.813 124.509 132.419 123.638 133.64 113.931C134.861 104.224 127.356 100.609 119.94 104.169Z" fill="#263238"/>
<path d="M110.515 132.508C110.515 132.508 108.079 133.564 115.317 163.919L136.583 162.376C135.595 153.746 135.211 148.416 138.044 130.354C135.022 129.955 131.975 129.777 128.927 129.818C125.695 129.818 122.467 130.048 119.268 130.504C115.145 131.204 110.515 132.508 110.515 132.508Z" fill="#1DAF52"/>
<path d="M127.171 119.014C126.787 122.17 126.594 127.932 128.92 129.819C128.92 129.819 128.303 133.029 122.526 133.454C116.181 133.914 119.261 130.518 119.261 130.518C122.691 129.441 122.389 126.876 121.614 124.509L127.171 119.014Z" fill="#B55B52"/>
<path opacity="0.2" d="M124.907 121.257L121.614 124.509C121.804 125.058 121.946 125.623 122.039 126.197C123.35 125.908 125.058 124.324 125.099 122.931C125.138 122.366 125.073 121.799 124.907 121.257Z" fill="black"/>
<path d="M130.724 113.773C129.537 118.843 129.14 121.017 126.101 123.206C121.532 126.498 115.564 123.926 115.214 118.603C114.898 113.801 116.894 106.323 122.266 105.136C123.447 104.871 124.677 104.912 125.839 105.255C127 105.598 128.054 106.232 128.902 107.098C129.749 107.963 130.361 109.03 130.68 110.199C130.999 111.367 131.014 112.597 130.724 113.773Z" fill="#B55B52"/>
<path d="M121.978 113.739C121.909 114.157 121.628 114.425 121.36 114.425C121.093 114.425 120.921 113.999 120.99 113.581C121.058 113.163 121.347 112.895 121.614 112.895C121.882 112.895 122.053 113.32 121.978 113.739Z" fill="#263238"/>
<path d="M117.265 112.936C117.189 113.348 116.915 113.622 116.641 113.622C116.366 113.622 116.202 113.204 116.277 112.785C116.352 112.367 116.627 112.099 116.901 112.099C117.176 112.099 117.306 112.504 117.265 112.936Z" fill="#263238"/>
<path d="M117.018 112.14L116.064 111.674C116.064 111.674 116.442 112.545 117.018 112.14Z" fill="#263238"/>
<path d="M118.925 113.931C118.392 114.821 117.738 115.633 116.984 116.346C117.171 116.533 117.397 116.677 117.646 116.768C117.895 116.859 118.16 116.895 118.424 116.874L118.925 113.931Z" fill="#A02724"/>
<path d="M131.314 118.712C130.802 119.581 129.969 120.214 128.995 120.475C127.706 120.805 127.088 119.638 127.473 118.417C127.816 117.333 128.906 115.859 130.217 116.057C130.497 116.11 130.76 116.232 130.981 116.412C131.202 116.592 131.375 116.824 131.484 117.088C131.593 117.351 131.635 117.638 131.605 117.922C131.575 118.205 131.475 118.477 131.314 118.712Z" fill="#B55B52"/>
<path d="M124.036 113.101C123.983 113.1 123.932 113.082 123.89 113.05C123.848 113.018 123.817 112.973 123.802 112.922C123.466 111.825 122.06 111.358 122.046 111.351C122.015 111.341 121.986 111.325 121.962 111.303C121.937 111.282 121.917 111.256 121.902 111.226C121.887 111.197 121.879 111.165 121.876 111.132C121.874 111.1 121.878 111.067 121.888 111.036C121.899 111.005 121.915 110.976 121.937 110.951C121.958 110.926 121.984 110.906 122.014 110.892C122.043 110.877 122.075 110.868 122.107 110.866C122.14 110.864 122.173 110.868 122.204 110.878C122.661 111.032 123.081 111.281 123.436 111.608C123.79 111.936 124.072 112.335 124.262 112.778C124.272 112.809 124.275 112.842 124.272 112.874C124.269 112.907 124.259 112.938 124.244 112.967C124.229 112.995 124.208 113.021 124.183 113.041C124.157 113.062 124.129 113.078 124.097 113.087C124.078 113.095 124.057 113.1 124.036 113.101Z" fill="#263238"/>
<path d="M116.215 110.515C116.162 110.51 116.112 110.489 116.072 110.455C116.031 110.421 116.003 110.375 115.99 110.323C115.977 110.272 115.98 110.217 116 110.168C116.02 110.119 116.054 110.077 116.099 110.048C116.436 109.843 116.818 109.723 117.212 109.696C117.606 109.67 118.001 109.739 118.362 109.897C118.392 109.912 118.418 109.932 118.439 109.957C118.461 109.982 118.477 110.011 118.487 110.042C118.497 110.074 118.501 110.107 118.499 110.139C118.496 110.172 118.487 110.204 118.472 110.233C118.457 110.263 118.437 110.289 118.412 110.31C118.387 110.331 118.358 110.348 118.327 110.358C118.296 110.368 118.263 110.372 118.23 110.369C118.197 110.367 118.165 110.358 118.136 110.343C117.849 110.22 117.536 110.168 117.224 110.192C116.912 110.216 116.611 110.315 116.346 110.48C116.306 110.502 116.261 110.514 116.215 110.515Z" fill="#263238"/>
<path d="M121.731 112.943L120.777 112.483C120.777 112.483 121.161 113.355 121.731 112.943Z" fill="#263238"/>
<path d="M118.836 118.17C120.581 117.808 122.357 117.615 124.139 117.594C123.734 118.794 122.924 119.796 120.914 119.872C120.665 119.906 120.41 119.889 120.168 119.82C119.925 119.752 119.699 119.634 119.504 119.474C119.309 119.315 119.149 119.116 119.034 118.892C118.919 118.668 118.851 118.422 118.836 118.17Z" fill="#263238"/>
<path d="M121.799 118.904C121.027 118.898 120.272 119.139 119.645 119.59C120.027 119.819 120.471 119.922 120.914 119.885C121.687 119.891 122.442 119.651 123.068 119.199C122.688 118.966 122.243 118.863 121.799 118.904Z" fill="#A02724"/>
<path d="M119.014 118.129C119.061 118.272 119.146 118.399 119.259 118.497C119.373 118.595 119.511 118.66 119.659 118.685C120.813 118.623 121.96 118.467 123.089 118.218C123.272 118.196 123.447 118.127 123.597 118.02C123.747 117.912 123.867 117.768 123.946 117.601C122.291 117.648 120.642 117.825 119.014 118.129Z" fill="white"/>
<path d="M116.099 110.048C117.66 109.387 119.019 108.324 120.036 106.968C120.036 106.968 120.036 110.618 121.525 110.336C123.014 110.055 120.777 106.961 120.777 106.961C120.777 106.961 124.207 108.484 125.38 111.461C126.553 114.439 127.891 117.69 130.532 116.881C133.173 116.071 132.59 107.633 128.7 105.527L123.212 104.54L121.593 104.78C120.753 104.899 119.947 105.194 119.227 105.644C118.142 106.31 117.289 107.294 116.785 108.463L116.099 110.048Z" fill="#263238"/>
<path d="M128.906 110.487C128.652 109.952 127.438 110 126.162 110.59C124.886 111.18 124.866 111.736 125.12 112.271C125.373 112.806 125.806 113.114 127.082 112.525C128.357 111.935 129.16 111.022 128.906 110.487ZM125.963 111.859C125.785 111.475 125.819 111.084 126.711 110.659C127.603 110.233 128.474 110.206 128.652 110.59C128.831 110.974 128.261 111.626 127.37 112.044C126.478 112.463 126.149 112.264 125.963 111.88V111.859Z" fill="#1DAF52"/>
<path opacity="0.2" d="M135.691 137.392L134.079 136.02L132.885 136.562C132.471 140.785 133.546 145.019 135.924 148.533C136.027 146.248 136.24 143.676 136.61 140.603C136.102 138.75 135.691 137.392 135.691 137.392Z" fill="black"/>
<path d="M157.423 154.11L156.552 154.199L156.14 150.268C156.016 148.961 156.392 147.655 157.191 146.613C157.99 145.57 159.154 144.869 160.449 144.65C161.075 144.544 161.716 144.569 162.332 144.722C162.948 144.875 163.526 145.153 164.03 145.539C164.534 145.925 164.953 146.411 165.261 146.966C165.569 147.521 165.759 148.134 165.82 148.766L166.238 152.697L165.367 152.793L164.956 148.855C164.905 148.34 164.75 147.841 164.5 147.388C164.25 146.935 163.91 146.538 163.501 146.221C163.091 145.906 162.621 145.678 162.119 145.553C161.618 145.428 161.096 145.408 160.586 145.494C159.511 145.676 158.545 146.258 157.882 147.124C157.219 147.989 156.908 149.073 157.012 150.158L157.423 154.11Z" fill="#263238"/>
<path d="M141.254 136.514C141.378 137.104 141.542 137.831 141.7 138.496C141.858 139.162 142.043 139.868 142.235 140.554C142.619 141.926 143.024 143.25 143.511 144.547C144.388 147.072 145.634 149.453 147.209 151.613L147.353 151.798L147.421 151.894L147.339 151.812C147.229 151.716 147.101 151.643 146.962 151.599C146.756 151.544 146.763 151.599 146.9 151.599C147.386 151.574 147.866 151.472 148.32 151.297C149.59 150.834 150.82 150.267 151.997 149.603C154.487 148.231 157.005 146.667 159.44 145.082L161.34 147.318C159.204 149.539 156.882 151.572 154.398 153.396C153.081 154.368 151.676 155.213 150.2 155.921C149.29 156.357 148.318 156.649 147.319 156.785C146.553 156.879 145.775 156.795 145.048 156.538C144.563 156.358 144.116 156.088 143.731 155.742C143.635 155.653 143.532 155.557 143.449 155.468L143.34 155.351L143.12 155.111C141.991 153.863 141.002 152.494 140.17 151.03C139.36 149.631 138.651 148.175 138.051 146.674C137.461 145.19 136.948 143.676 136.514 142.139C136.301 141.385 136.102 140.623 135.924 139.855C135.746 139.086 135.581 138.339 135.444 137.461L141.254 136.514Z" fill="#B55B52"/>
<path d="M138.037 130.34C140.212 130.834 144.019 138.695 144.019 138.695L135.471 144.492C135.471 144.492 132.041 138.586 132.727 135.766C133.427 132.844 135.554 129.791 138.037 130.34Z" fill="#1DAF52"/>
<path d="M159.083 145.048L164.05 142.304L163.007 147.538C163.007 147.538 159.797 148.56 158.205 147.037L159.083 145.048Z" fill="#B55B52"/>
<path d="M168.406 143.01L167.295 147.353L163.007 147.545L164.05 142.311L168.406 143.01Z" fill="#B55B52"/>
<path d="M170.492 152.038L169.668 148.169C169.432 147.105 168.802 146.17 167.905 145.552C167.008 144.934 165.91 144.678 164.832 144.835C164.32 144.91 163.828 145.09 163.389 145.364C162.949 145.639 162.571 146 162.278 146.427C161.985 146.854 161.783 147.337 161.686 147.846C161.588 148.355 161.597 148.878 161.711 149.383L162.534 153.252L161.683 153.438L160.86 149.568C160.72 148.948 160.71 148.305 160.83 147.68C160.95 147.055 161.198 146.461 161.558 145.936C161.918 145.412 162.382 144.967 162.922 144.63C163.462 144.293 164.065 144.071 164.695 143.978C165.994 143.787 167.317 144.094 168.399 144.839C169.48 145.583 170.24 146.709 170.526 147.991L171.349 151.86L170.492 152.038Z" fill="#263238"/>
<g opacity="0.3">
<path d="M170.492 152.038L169.668 148.169C169.432 147.105 168.802 146.17 167.905 145.552C167.008 144.934 165.91 144.678 164.832 144.835C164.32 144.91 163.828 145.09 163.389 145.364C162.949 145.639 162.571 146 162.278 146.427C161.985 146.854 161.783 147.337 161.686 147.846C161.588 148.355 161.597 148.878 161.711 149.383L162.534 153.252L161.683 153.438L160.86 149.568C160.72 148.948 160.71 148.305 160.83 147.68C160.95 147.055 161.198 146.461 161.558 145.936C161.918 145.412 162.382 144.967 162.922 144.63C163.462 144.293 164.065 144.071 164.695 143.978C165.994 143.787 167.317 144.094 168.399 144.839C169.48 145.583 170.24 146.709 170.526 147.991L171.349 151.86L170.492 152.038Z" fill="white"/>
</g>
<path d="M175.609 149.452L150.165 153.479L154.082 183.8L157.718 182.339L161.628 182.606L181.248 179.499L175.609 149.452Z" fill="#1DAF52"/>
<path opacity="0.6" d="M175.609 149.452L150.165 153.479L154.082 183.8L157.718 182.339L161.628 182.606L181.248 179.499L175.609 149.452Z" fill="white"/>
<path d="M161.628 182.606L157.718 182.339L154.082 183.8L150.165 153.479L155.983 152.56L161.628 182.606Z" fill="#1DAF52"/>
<path opacity="0.3" d="M161.628 182.606L157.718 182.339L154.082 183.8L150.165 153.479L155.983 152.56L161.628 182.606Z" fill="white"/>
<path d="M173.109 162.513L162.587 164.179C162.022 164.269 161.636 164.799 161.726 165.364L161.741 165.459C161.83 166.024 162.361 166.41 162.926 166.32L173.448 164.654C174.014 164.564 174.399 164.034 174.31 163.469L174.295 163.374C174.205 162.809 173.674 162.423 173.109 162.513Z" fill="white"/>
</svg>
