<svg width="60" height="60" viewBox="0 0 60 60" fill="none" xmlns="http://www.w3.org/2000/svg">
<path fill-rule="evenodd" clip-rule="evenodd" d="M30.0791 3.125C31.5893 3.12497 32.8398 3.12497 33.8721 3.21289C34.9538 3.30505 35.9312 3.50198 36.874 3.96875C38.5537 4.80038 39.6158 6.12176 40.3613 7.44727C40.9392 8.47485 41.3883 9.62902 41.7686 10.6074C41.8583 10.8384 41.9434 11.0602 42.0264 11.2676L42.7686 13.125C45.4979 13.1249 47.4643 13.127 48.9805 13.3359C50.6884 13.5713 51.9233 14.0775 53.207 15.0625C53.857 15.5612 54.4388 16.143 54.9375 16.793C56.0046 18.1837 56.4573 19.8048 56.6699 21.6904C56.8755 23.5141 56.875 25.8008 56.875 28.6367V40.1367C56.8751 43.5557 56.8754 46.3121 56.584 48.4795C56.2814 50.7297 55.6337 52.6241 54.1289 54.1289C52.6241 55.6337 50.7297 56.2814 48.4795 56.584C46.3121 56.8754 43.5557 56.8751 40.1367 56.875H19.8633C16.4443 56.8751 13.6879 56.8754 11.5205 56.584C9.27027 56.2814 7.37587 55.6337 5.8711 54.1289C4.36632 52.6241 3.71856 50.7297 3.41602 48.4795C3.12462 46.3121 3.12495 43.5557 3.125 40.1367V28.6367C3.12497 25.8008 3.12449 23.5141 3.33008 21.6904C3.54267 19.8048 3.99539 18.1837 5.0625 16.793C5.56125 16.143 6.143 15.5612 6.79297 15.0625C8.07665 14.0775 9.31158 13.5713 11.0195 13.3359C12.5357 13.127 14.5021 13.1249 17.2314 13.125L17.9746 11.2676C18.0576 11.0602 18.1426 10.8384 18.2324 10.6074C18.6127 9.62902 19.0617 8.47485 19.6397 7.44727C20.3851 6.12176 21.4473 4.80039 23.127 3.96875C24.0698 3.50198 25.0472 3.30505 26.1289 3.21289C27.1612 3.12497 28.4117 3.12497 29.9219 3.125H30.0791ZM30.001 6.875C28.3925 6.875 27.3018 6.87644 26.4473 6.94922C25.6248 7.01929 25.1587 7.14713 24.791 7.3291C24.014 7.71381 23.4315 8.35563 22.9082 9.28613C22.4736 10.059 22.1477 10.8928 21.7764 11.8447C21.6741 12.107 21.5686 12.3788 21.4561 12.6602L19.2412 18.1963C18.8566 19.1578 17.7652 19.6258 16.8037 19.2412C15.8666 18.8662 15.4002 17.82 15.7334 16.877C13.7837 16.8844 12.5092 16.916 11.5313 17.0508C10.4277 17.2029 9.81204 17.4725 9.07617 18.0371C8.68618 18.3364 8.33636 18.6862 8.03711 19.0762C7.55459 19.7052 7.23149 20.5596 7.05664 22.1104C6.8775 23.6994 6.875 25.7744 6.875 28.75V40C6.875 43.5884 6.87896 46.0911 7.13281 47.9795C7.37945 49.8139 7.83056 50.7856 8.52246 51.4775C9.21437 52.1694 10.1861 52.6206 12.0205 52.8672C13.9089 53.121 16.4116 53.125 20 53.125H40C43.5884 53.125 46.0911 53.121 47.9795 52.8672C49.8139 52.6206 50.7856 52.1694 51.4775 51.4775C52.1694 50.7856 52.6206 49.8139 52.8672 47.9795C53.121 46.0911 53.125 43.5884 53.125 40V28.75C53.125 25.7744 53.1225 23.6994 52.9434 22.1104C52.7685 20.5596 52.4454 19.7052 51.9629 19.0762C51.6636 18.6862 51.3138 18.3364 50.9238 18.0371C50.188 17.4725 49.5723 17.2029 48.4688 17.0508C47.4908 16.916 46.2163 16.8844 44.2666 16.877C44.6001 17.8201 44.1345 18.8662 43.1973 19.2412C42.2358 19.6258 41.1444 19.1578 40.7598 18.1963L38.5449 12.6602C38.4324 12.3788 38.3269 12.107 38.2246 11.8447C37.8533 10.8928 37.5274 10.059 37.0928 9.28613C36.5695 8.35564 35.987 7.71381 35.21 7.3291C34.8423 7.14713 34.3762 7.01929 33.5537 6.94922C32.6993 6.87645 31.6092 6.875 30.001 6.875ZM30 24.375C35.868 24.375 40.625 29.132 40.625 35C40.625 40.868 35.868 45.625 30 45.625C24.132 45.625 19.375 40.868 19.375 35C19.375 29.132 24.132 24.375 30 24.375ZM30 28.125C26.203 28.125 23.125 31.203 23.125 35C23.125 38.797 26.203 41.875 30 41.875C33.797 41.875 36.875 38.797 36.875 35C36.875 31.203 33.797 28.125 30 28.125ZM30.0225 12.5C31.4032 12.5 32.5225 13.6193 32.5225 15C32.5225 16.3807 31.4032 17.5 30.0225 17.5H30C28.6193 17.5 27.5 16.3807 27.5 15C27.5 13.6193 28.6193 12.5 30 12.5H30.0225Z" fill="#C2CAD6"/>
</svg>
