<svg width="139" height="112" viewBox="0 0 139 112" fill="none" xmlns="http://www.w3.org/2000/svg">
<rect width="139" height="112" fill="#FFFEFE"/>
<path d="M75.6162 35.8401C77.7656 35.8401 79.5078 37.5951 79.5078 39.76C79.5078 41.9249 77.7657 43.6799 75.6162 43.6799H111.2C113.35 43.68 115.092 45.435 115.092 47.5999C115.092 49.7648 113.35 51.5197 111.2 51.5198H123.433C125.582 51.52 127.324 53.2751 127.324 55.4397C127.324 57.6045 125.582 59.3594 123.433 59.3596H112.868C110.719 59.3596 108.977 61.1156 108.977 63.2805C108.977 65.4453 110.719 67.2004 112.868 67.2004H116.204C118.354 67.2004 120.096 68.9554 120.096 71.1204C120.096 73.2852 118.354 75.0403 116.204 75.0403H87.292C87.0058 75.0403 86.7266 75.0085 86.458 74.9495C86.1893 75.0085 85.9103 75.0403 85.624 75.0403H35.0283C32.8789 75.0403 31.1359 73.2852 31.1357 71.1204C31.1357 68.9554 32.8788 67.2004 35.0283 67.2004H13.3438C11.1946 67.2002 9.45238 65.4451 9.45215 63.2805C9.45215 61.1157 11.1944 59.3598 13.3438 59.3596H35.584C37.7335 59.3596 39.4766 57.6047 39.4766 55.4397C39.4764 53.2749 37.7333 51.5198 35.584 51.5198H21.6846C19.5351 51.5198 17.792 49.7648 17.792 47.5999C17.7921 45.435 19.5352 43.6799 21.6846 43.6799H43.9238C41.7745 43.6798 40.0322 41.9249 40.0322 39.76C40.0323 37.5952 41.7745 35.8403 43.9238 35.8401H75.6162ZM125.656 67.2004C127.806 67.2005 129.548 68.9554 129.548 71.1204C129.548 73.2852 127.806 75.0402 125.656 75.0403C123.507 75.0403 121.764 73.2852 121.764 71.1204C121.764 68.9554 123.507 67.2004 125.656 67.2004Z" fill="#E9FBF0"/>
<path d="M95.9103 25.2V28.56" stroke="#16833E" stroke-width="2.5" stroke-linecap="round" stroke-linejoin="round"/>
<path d="M95.9103 33.04V36.4" stroke="#16833E" stroke-width="2.5" stroke-linecap="round" stroke-linejoin="round"/>
<path d="M90.3501 30.7998H93.6861" stroke="#16833E" stroke-width="2.5" stroke-linecap="round" stroke-linejoin="round"/>
<path d="M98.1343 30.7998H101.47" stroke="#16833E" stroke-width="2.5" stroke-linecap="round" stroke-linejoin="round"/>
<path d="M49.7619 82.8799V85.1199" stroke="#16833E" stroke-width="2.5" stroke-linecap="round" stroke-linejoin="round"/>
<path d="M49.7619 89.5999V91.8399" stroke="#16833E" stroke-width="2.5" stroke-linecap="round" stroke-linejoin="round"/>
<path d="M45.314 87.3599H47.538" stroke="#16833E" stroke-width="2.5" stroke-linecap="round" stroke-linejoin="round"/>
<path d="M51.9858 87.3599H54.2098" stroke="#16833E" stroke-width="2.5" stroke-linecap="round" stroke-linejoin="round"/>
<path fill-rule="evenodd" clip-rule="evenodd" d="M89.3554 73.4309C90.1286 72.4771 90.8236 71.4797 91.4404 70.4474C92.7968 68.1769 93.7745 65.7376 94.3721 63.2227C94.9765 60.6792 95.1919 58.0584 95.0171 55.4567C94.8645 53.1864 94.4146 50.9307 93.6666 48.7536C92.9244 46.5937 91.8887 44.5111 90.5585 42.5685C89.7658 41.4109 88.8686 40.3031 87.8666 39.2581C86.3955 37.7239 84.7818 36.4124 83.0673 35.3242C81.2251 34.1549 79.2665 33.2436 77.2429 32.5912C74.7087 31.7741 72.0727 31.3631 69.4364 31.3601C67.3851 31.3578 65.3336 31.6025 63.3296 32.0951C61.0735 32.6497 58.8776 33.5185 56.81 34.7029C54.9925 35.744 53.2741 37.029 51.7012 38.5587C49.7245 40.4811 48.1233 42.6481 46.8991 44.9673C45.7006 47.2379 44.8634 49.6543 44.389 52.1298C43.9001 54.6802 43.7963 57.2932 44.0789 59.8741C44.4452 63.2191 45.4608 66.51 47.1288 69.5401C48.1962 71.4789 49.5306 73.311 51.1331 74.9821C53.677 77.635 56.647 79.6224 59.8279 80.94C63.6963 82.5423 67.8766 83.1541 71.9822 82.768C75.4279 82.444 78.8209 81.417 81.9325 79.6826" fill="white"/>
<path d="M89.3554 73.4309C90.1286 72.4771 90.8236 71.4797 91.4404 70.4474C92.7968 68.1769 93.7745 65.7376 94.3721 63.2227C94.9765 60.6792 95.1919 58.0584 95.0171 55.4567C94.8645 53.1864 94.4146 50.9307 93.6666 48.7536C92.9244 46.5937 91.8887 44.5111 90.5585 42.5685C89.7658 41.4109 88.8686 40.3031 87.8666 39.2581C86.3955 37.7239 84.7818 36.4124 83.0673 35.3242C81.2251 34.1549 79.2665 33.2436 77.2429 32.5912C74.7087 31.7741 72.0727 31.3631 69.4364 31.3601C67.3851 31.3578 65.3336 31.6025 63.3296 32.0951C61.0735 32.6497 58.8776 33.5185 56.81 34.7029C54.9925 35.744 53.2741 37.029 51.7012 38.5587C49.7245 40.4811 48.1233 42.6481 46.8991 44.9673C45.7006 47.2379 44.8634 49.6543 44.389 52.1298C43.9001 54.6802 43.7963 57.2932 44.0789 59.8741C44.4452 63.2191 45.4608 66.51 47.1288 69.5401C48.1962 71.4789 49.5306 73.311 51.1331 74.9821C53.677 77.635 56.647 79.6224 59.8279 80.94C63.6963 82.5423 67.8766 83.1541 71.9822 82.768C75.4279 82.444 78.8209 81.417 81.9325 79.6826" stroke="#1DAF52" stroke-width="2.5" stroke-linecap="round" stroke-linejoin="round"/>
<path fill-rule="evenodd" clip-rule="evenodd" d="M83.7901 78.6117C85.4059 77.5645 86.8425 76.2579 87.7771 75.2031Z" fill="white"/>
<path d="M83.7901 78.6117C85.4059 77.5645 86.8425 76.2579 87.7771 75.2031" stroke="#1F64E7" stroke-width="2.5" stroke-linecap="round"/>
<path d="M92.8519 58.5856C92.6929 58.5885 92.5335 58.5899 92.3738 58.5899C78.3328 58.5899 66.836 47.5644 65.8726 33.6001C54.6965 35.3756 46.1479 45.1655 46.1479 56.9764C46.1479 70.0455 56.6149 80.6401 69.5266 80.6401C81.9039 80.6401 92.0347 70.9042 92.8519 58.5856Z" fill="#E9FBF0"/>
<path fill-rule="evenodd" clip-rule="evenodd" d="M60.6172 56.2088C59.937 55.5763 58.882 55.6248 58.2607 56.3173C57.6394 57.0098 57.6871 58.084 58.3673 58.7166L66.2174 66.0179C67.1696 66.9035 68.6467 66.8355 69.5165 65.866C69.5529 65.8248 69.5529 65.8248 69.588 65.7825L80.7908 52.0641C81.3797 51.3429 81.2829 50.2722 80.5746 49.6725C79.8662 49.0728 78.8146 49.1714 78.2256 49.8926L67.6932 62.7901L60.6172 56.2088Z" fill="white" stroke="#1DAF52" stroke-width="2.5" stroke-linecap="round"/>
<path fill-rule="evenodd" clip-rule="evenodd" d="M61.6179 36.0712C60.5336 36.481 59.4745 36.9789 58.4513 37.5652C56.8613 38.4762 55.358 39.6006 53.9819 40.9391C53.4178 41.4877 52.8886 42.0592 52.3945 42.6505M50.8657 44.7093C50.4727 45.3073 50.1111 45.9203 49.7808 46.546C49.5369 47.0081 49.3101 47.4771 49.1003 47.952" fill="white"/>
<path d="M62.0552 37.2456C62.6993 37.0022 63.0256 36.279 62.7841 35.6304C62.5426 34.9817 61.8246 34.6532 61.1805 34.8967L61.6179 36.0712L62.0552 37.2456ZM58.4513 37.5652L59.067 38.6555L58.4513 37.5652ZM53.9819 40.9391L53.1168 40.0368L53.9819 40.9391ZM51.4416 41.8429C50.9986 42.3731 51.0661 43.1644 51.5924 43.6105C52.1186 44.0565 52.9044 43.9883 53.3473 43.4582L52.3945 42.6505L51.4416 41.8429ZM51.9043 45.4014C52.284 44.8236 52.1268 44.0453 51.5532 43.6631C50.9796 43.2808 50.2068 43.4393 49.8271 44.0171L50.8657 44.7093L51.9043 45.4014ZM49.7808 46.546L50.8805 47.1347V47.1347L49.7808 46.546ZM47.9623 47.4425C47.6828 48.0756 47.9657 48.817 48.5942 49.0984C49.2227 49.3798 49.9588 49.0947 50.2384 48.4616L49.1003 47.952L47.9623 47.4425ZM61.6179 36.0712L61.1805 34.8967C60.0353 35.3295 58.9165 35.8555 57.8356 36.4749L58.4513 37.5652L59.067 38.6555C60.0325 38.1023 61.032 37.6324 62.0552 37.2456L61.6179 36.0712ZM58.4513 37.5652L57.8356 36.4749C56.1557 37.4374 54.5685 38.6248 53.1168 40.0368L53.9819 40.9391L54.847 41.8413C56.1474 40.5765 57.5668 39.5151 59.067 38.6555L58.4513 37.5652ZM53.9819 40.9391L53.1168 40.0368C52.5218 40.6155 51.9633 41.2185 51.4416 41.8429L52.3945 42.6505L53.3473 43.4582C53.8139 42.8998 54.3138 42.3599 54.847 41.8413L53.9819 40.9391ZM50.8657 44.7093L49.8271 44.0171C49.412 44.6488 49.03 45.2964 48.6811 45.9573L49.7808 46.546L50.8805 47.1347C51.1922 46.5443 51.5334 45.9658 51.9043 45.4014L50.8657 44.7093ZM49.7808 46.546L48.6811 45.9573C48.4234 46.4454 48.1838 46.9409 47.9623 47.4425L49.1003 47.952L50.2384 48.4616C50.4363 48.0133 50.6503 47.5707 50.8805 47.1347L49.7808 46.546Z" fill="#16833E"/>
</svg>
