<svg width="20" height="20" viewBox="0 0 20 20" fill="none" xmlns="http://www.w3.org/2000/svg">
<path d="M10.0002 1.04199C10.7218 1.04206 11.3673 1.27226 12.0637 1.66309C12.7386 2.04183 13.5122 2.60158 14.4846 3.30469L15.7415 4.21387C16.5218 4.77806 17.1453 5.22842 17.6155 5.64551C18.1009 6.07621 18.4642 6.50582 18.6946 7.0459C18.9254 7.58706 18.9814 8.14176 18.9504 8.78125C18.9206 9.3985 18.806 10.1437 18.6633 11.0723L18.4006 12.7822C18.1978 14.102 18.0363 15.1529 17.7991 15.9717C17.5537 16.8183 17.2078 17.4901 16.5901 18.0039C15.9749 18.5155 15.2421 18.7438 14.3469 18.8525C13.4762 18.9583 12.3777 18.958 10.9905 18.958H9.00903C7.6217 18.958 6.52333 18.9583 5.65259 18.8525C4.75746 18.7438 4.02457 18.5155 3.40942 18.0039C2.79185 17.4902 2.44574 16.8182 2.20044 15.9717C1.96322 15.153 1.80167 14.102 1.59888 12.7822L1.33618 11.0723C1.19348 10.1437 1.07896 9.39849 1.04907 8.78125C1.01816 8.14178 1.07414 7.58704 1.30493 7.0459C1.5353 6.50578 1.89858 6.07623 2.38403 5.64551C2.85416 5.2284 3.4777 4.77808 4.25806 4.21387L5.51587 3.30469C6.48836 2.60153 7.26185 2.04183 7.93677 1.66309C8.63319 1.27232 9.27864 1.04199 10.0002 1.04199ZM10.0002 2.29199C9.56946 2.29199 9.13846 2.42166 8.5481 2.75293C7.94319 3.09238 7.22763 3.60915 6.21704 4.33984L5.01685 5.20703C4.20383 5.79487 3.63207 6.21023 3.21411 6.58105C2.80626 6.94292 2.58689 7.22782 2.45532 7.53613C2.32427 7.84339 2.27245 8.19206 2.2981 8.72168C2.32449 9.26614 2.42839 9.94641 2.57739 10.916L2.82837 12.5488C3.03942 13.9222 3.18965 14.8925 3.40161 15.624C3.60811 16.3366 3.85371 16.7473 4.20923 17.043C4.56729 17.3407 5.03217 17.5177 5.80298 17.6113C6.58965 17.7069 7.61251 17.708 9.05103 17.708H10.9485C12.387 17.708 13.4099 17.7069 14.1965 17.6113C14.9676 17.5177 15.4331 17.3408 15.7913 17.043C16.1467 16.7473 16.3924 16.3365 16.5989 15.624C16.8108 14.8925 16.9611 13.9222 17.1721 12.5488L17.4231 10.916C17.5721 9.94648 17.675 9.26612 17.7014 8.72168C17.7271 8.19206 17.6762 7.84339 17.5452 7.53613C17.4136 7.22781 17.1941 6.94288 16.7864 6.58105C16.3684 6.21022 15.7957 5.79489 14.9827 5.20703L13.7825 4.33984C12.772 3.60923 12.0563 3.09235 11.4514 2.75293C10.8613 2.42184 10.4309 2.29206 10.0002 2.29199ZM12.1165 13.6738C12.3888 13.4619 12.7814 13.5109 12.9934 13.7832C13.205 14.0556 13.1563 14.4482 12.884 14.6602C12.1061 15.2657 11.0952 15.6249 10.0002 15.625C8.90537 15.625 7.89439 15.2656 7.11646 14.6602C6.84411 14.4482 6.79516 14.0556 7.00708 13.7832C7.21911 13.5108 7.61165 13.4618 7.88403 13.6738C8.43855 14.1054 9.1784 14.375 10.0002 14.375C10.8221 14.3749 11.562 14.1054 12.1165 13.6738Z" fill="#3E495B"/>
</svg>
