<svg width="20" height="20" viewBox="0 0 20 20" fill="none" xmlns="http://www.w3.org/2000/svg">
<path fill-rule="evenodd" clip-rule="evenodd" d="M8.15113 1.51561C9.35766 1.43898 10.6361 1.43896 11.8484 1.51561C15.6391 1.76987 18.6803 4.85115 18.9236 8.68358C18.9669 9.4077 18.9669 10.1397 18.9236 10.8613C18.6792 14.6953 15.6385 17.7761 11.8503 18.0303C10.6355 18.1152 9.3546 18.1153 8.14722 18.0303C7.66478 18.0003 7.15315 17.8836 6.7107 17.7012L6.60816 17.6582C6.49254 17.6108 6.37445 17.5618 6.28785 17.5293C6.22035 17.5751 6.13023 17.6385 6.04273 17.7002L5.99195 17.7363C5.26528 18.2772 4.43191 18.541 3.45191 18.541L3.45386 18.5391C3.40893 18.5391 3.36389 18.5388 3.31812 18.5371L3.25367 18.5361C2.6845 18.5186 2.19194 18.5023 1.89527 18.0273C1.89028 18.019 1.88464 18.0103 1.87964 18.0019C1.59882 17.5003 1.84421 17.0385 2.18336 16.3994L2.198 16.3711C2.4755 15.8503 2.74833 15.1288 2.49 14.6279C1.63094 13.348 1.15524 12.0814 1.07691 10.8623C1.03361 10.1384 1.03361 9.40695 1.07691 8.68554C1.32108 4.85137 4.3628 1.76895 8.15113 1.51561ZM11.7673 2.76073C10.6082 2.68823 9.38453 2.68823 8.23121 2.76073C5.06897 2.97256 2.52828 5.55168 2.32398 8.75976C2.28399 9.41963 2.284 10.1207 2.32398 10.7822C2.38814 11.7829 2.79874 12.8508 3.54273 13.9531C3.55272 13.9681 3.56287 13.9843 3.57203 14.001C4.01286 14.7976 3.9225 15.7919 3.3025 16.956L3.28785 16.9834C3.23535 17.0817 3.18007 17.1861 3.13257 17.2803V17.2812C3.18501 17.2837 3.24031 17.2845 3.29273 17.2861L3.35328 17.2871C4.11909 17.3038 4.70839 17.1335 5.25171 16.7285C5.25583 16.726 5.2593 16.7222 5.26343 16.7197L5.32007 16.6797C5.68319 16.4215 5.86576 16.2912 6.11402 16.2529C6.38567 16.2113 6.62003 16.3085 7.08668 16.501L7.18824 16.543C7.50237 16.6729 7.88197 16.7586 8.23023 16.7803C9.3858 16.8619 10.6063 16.8619 11.7644 16.7803H11.7664C14.9312 16.5686 17.4714 13.9886 17.6765 10.7812C17.7165 10.1214 17.7165 9.42034 17.6765 8.75878C17.4724 5.55295 14.9315 2.97323 11.7673 2.76073ZM6.67359 9.16015C7.13345 9.16015 7.50735 9.53335 7.50757 9.99315C7.50757 10.4532 7.13359 10.8271 6.67359 10.8271C6.21378 10.8269 5.83668 10.453 5.83668 9.99315C5.8369 9.53335 6.20592 9.16015 6.66578 9.16015H6.67359ZM9.99976 9.16015C10.4596 9.16015 10.8325 9.53335 10.8328 9.99315C10.8328 10.4532 10.4598 10.8271 9.99976 10.8271C9.5398 10.8271 9.16675 10.4531 9.16675 9.99315C9.16698 9.53338 9.53911 9.16019 9.99976 9.16015ZM13.3328 9.16015C13.7924 9.16036 14.1655 9.53348 14.1658 9.99315C14.1658 10.453 13.7926 10.8269 13.3328 10.8271C12.8728 10.8271 12.4949 10.4532 12.4949 9.99315C12.4951 9.53338 12.8642 9.16019 13.324 9.16015H13.3328Z" fill="#3E495B"/>
</svg>
