<svg width="24" height="24" viewBox="0 0 24 24" fill="none" xmlns="http://www.w3.org/2000/svg">
<path fill-rule="evenodd" clip-rule="evenodd" d="M12 1.25C16.5677 1.25 20.2749 4.94131 20.2749 9.5C20.275 10.5604 20.3461 11.3606 20.8338 12.08C20.9016 12.1785 20.9915 12.3019 21.0898 12.4368C21.2605 12.6711 21.4564 12.9399 21.605 13.1727C21.8672 13.5836 22.1234 14.0791 22.2115 14.6565C22.4989 16.5402 21.1742 17.7598 19.855 18.3063C18.8723 18.7134 17.8104 19.0344 16.7028 19.2693C16.1285 21.2896 14.2291 22.7499 11.999 22.7499C9.76885 22.7499 7.86926 21.2894 7.29518 19.2689C6.18832 19.034 5.12712 18.7132 4.14501 18.3063C2.82579 17.7598 1.50114 16.5402 1.78849 14.6565C1.87657 14.0791 2.13277 13.5836 2.39501 13.1727C2.54359 12.9399 2.73947 12.6711 2.91021 12.4368C3.00851 12.3019 3.09848 12.1785 3.16628 12.0799C3.6539 11.3606 3.72503 10.5603 3.72512 9.49994C3.72516 4.94128 7.43227 1.25 12 1.25ZM14.9629 19.5634C13.0144 19.8123 10.9835 19.8122 9.03499 19.5631C9.6065 20.5618 10.7125 21.2499 11.999 21.2499C13.2854 21.2499 14.3914 20.562 14.9629 19.5634ZM12 2.75C8.25599 2.75 5.22512 5.77442 5.22512 9.5C5.22503 10.5824 5.17164 11.7967 4.4061 12.9242C4.27805 13.1106 4.16771 13.2605 4.06319 13.4025C3.92447 13.591 3.797 13.7642 3.65945 13.9797C3.44621 14.3138 3.31395 14.6034 3.27134 14.8827C3.13339 15.7871 3.7102 16.5026 4.71909 16.9205C8.99806 18.6932 15.0019 18.6932 19.2809 16.9206C20.2898 16.5026 20.8666 15.7871 20.7286 14.8827C20.686 14.6034 20.5538 14.3138 20.3405 13.9797C20.203 13.7642 20.0755 13.591 19.9368 13.4025C19.8326 13.261 19.7222 13.1108 19.5963 12.9277C18.8284 11.7967 18.775 10.5825 18.7749 9.50006C18.7749 5.77448 15.744 2.75 12 2.75Z" fill="#3E495B"/>
</svg>
