<svg width="20" height="20" viewBox="0 0 20 20" fill="none" xmlns="http://www.w3.org/2000/svg">
<path fill-rule="evenodd" clip-rule="evenodd" d="M5.16205 12.3643C8.12371 10.6009 11.8772 10.6008 14.8388 12.3643C14.9357 12.4219 15.055 12.49 15.1904 12.5664C15.7844 12.9015 16.6827 13.4077 17.2978 14.0098C17.6824 14.3863 18.0476 14.8825 18.1142 15.4902C18.1849 16.1368 17.9027 16.7441 17.3369 17.2832C16.3608 18.213 15.1896 18.9579 13.6747 18.958H6.32612C4.81097 18.958 3.63919 18.2131 2.66303 17.2832C2.09718 16.7441 1.81501 16.1368 1.88569 15.4902C1.95225 14.8825 2.31748 14.3862 2.70209 14.0098C3.31721 13.4077 4.2155 12.9015 4.80951 12.5664C4.94507 12.4899 5.06513 12.422 5.16205 12.3643ZM14.1992 13.4385C11.6315 11.9096 8.36837 11.9096 5.80073 13.4385C5.66091 13.5217 5.50805 13.6092 5.3476 13.7002C4.75381 14.0371 4.0605 14.4302 3.57709 14.9033C3.27722 15.1968 3.14849 15.4388 3.12787 15.626C3.11163 15.7746 3.14981 16.0202 3.52534 16.3779C4.3885 17.2002 5.2658 17.708 6.32612 17.708H13.6747C14.7349 17.7079 15.6124 17.2002 16.4755 16.3779C16.8508 16.0203 16.8883 15.7746 16.872 15.626C16.8514 15.4389 16.7234 15.1967 16.4238 14.9033C15.9405 14.4303 15.247 14.037 14.6533 13.7002C14.4927 13.6091 14.339 13.5218 14.1992 13.4385ZM9.99994 1.04199C12.4162 1.04201 14.3749 3.00075 14.3749 5.41699C14.3748 7.83308 12.4161 9.79198 9.99994 9.79199C7.58381 9.79199 5.62512 7.83309 5.62494 5.41699C5.62494 3.00075 7.5837 1.04199 9.99994 1.04199ZM9.99994 2.29199C8.27406 2.29199 6.87494 3.6911 6.87494 5.41699C6.87512 7.14273 8.27416 8.54199 9.99994 8.54199C11.7257 8.54198 13.1248 7.14272 13.1249 5.41699C13.1249 3.69111 11.7258 2.29201 9.99994 2.29199Z" fill="#3E495B"/>
</svg>
